<svg version="1.1" viewBox="0.0 0.0 960.0 720.0" fill="none" stroke="none" stroke-linecap="square" stroke-miterlimit="10" xmlns:xlink="http://www.w3.org/1999/xlink" xmlns="http://www.w3.org/2000/svg"><clipPath id="p.0"><path d="m0 0l960.0 0l0 720.0l-960.0 0l0 -720.0z" clip-rule="nonzero"/></clipPath><g clip-path="url(#p.0)"><path fill="#000000" fill-opacity="0.0" d="m0 0l960.0 0l0 720.0l-960.0 0z" fill-rule="evenodd"/><path fill="#000000" fill-opacity="0.0" d="m96.333336 368.69946l108.76115 -205.74146l108.76117 205.74146l-108.76117 205.74146z" fill-rule="evenodd"/><path stroke="#ff0000" stroke-width="16.0" stroke-linejoin="round" stroke-linecap="butt" d="m96.333336 368.69946l108.76115 -205.74146l108.76117 205.74146l-108.76117 205.74146z" fill-rule="evenodd"/><path fill="#000000" fill-opacity="0.0" d="m116.25197 320.48294l171.11812 0" fill-rule="evenodd"/><path stroke="#ff0000" stroke-width="16.0" stroke-linejoin="round" stroke-linecap="butt" d="m116.25197 320.48294l171.11812 0" fill-rule="evenodd"/><path fill="#000000" fill-opacity="0.0" d="m96.333336 368.69946l217.51181 0" fill-rule="evenodd"/><path stroke="#ff0000" stroke-width="16.0" stroke-linejoin="round" stroke-linecap="butt" d="m96.333336 368.69946l217.51181 0" fill-rule="evenodd"/><path fill="#000000" fill-opacity="0.0" d="m124.27559 422.21783l161.6378 2.677185" fill-rule="evenodd"/><path stroke="#ff0000" stroke-width="16.0" stroke-linejoin="round" stroke-linecap="butt" d="m124.27559 422.21783l161.6378 2.677185" fill-rule="evenodd"/><path fill="#000000" fill-opacity="0.0" d="m146.85039 481.18372l115.87401 -2.6456604" fill-rule="evenodd"/><path stroke="#ff0000" stroke-width="16.0" stroke-linejoin="round" stroke-linecap="butt" d="m146.85039 481.18372l115.87401 -2.6456604" fill-rule="evenodd"/><path fill="#000000" fill-opacity="0.0" d="m147.15749 279.65878l115.87401 -2.6456604" fill-rule="evenodd"/><path stroke="#ff0000" stroke-width="16.0" stroke-linejoin="round" stroke-linecap="butt" d="m147.15749 279.65878l115.87401 -2.6456604" fill-rule="evenodd"/><path fill="#000000" fill-opacity="0.0" d="m695.49866 368.69946l108.76117 -205.74146l108.76117 205.74146l-108.76117 205.74146z" fill-rule="evenodd"/><path stroke="#ff0000" stroke-width="16.0" stroke-linejoin="round" stroke-linecap="butt" d="m695.49866 368.69946l108.76117 -205.74146l108.76117 205.74146l-108.76117 205.74146z" fill-rule="evenodd"/><path fill="#000000" fill-opacity="0.0" d="m715.4173 320.48294l171.11816 0" fill-rule="evenodd"/><path stroke="#ff0000" stroke-width="16.0" stroke-linejoin="round" stroke-linecap="butt" d="m715.4173 320.48294l171.11816 0" fill-rule="evenodd"/><path fill="#000000" fill-opacity="0.0" d="m695.49866 368.69946l217.51184 0" fill-rule="evenodd"/><path stroke="#ff0000" stroke-width="16.0" stroke-linejoin="round" stroke-linecap="butt" d="m695.49866 368.69946l217.51184 0" fill-rule="evenodd"/><path fill="#000000" fill-opacity="0.0" d="m723.4409 422.21783l161.63782 2.677185" fill-rule="evenodd"/><path stroke="#ff0000" stroke-width="16.0" stroke-linejoin="round" stroke-linecap="butt" d="m723.4409 422.21783l161.63782 2.677185" fill-rule="evenodd"/><path fill="#000000" fill-opacity="0.0" d="m746.01575 481.18372l115.87402 -2.6456604" fill-rule="evenodd"/><path stroke="#ff0000" stroke-width="16.0" stroke-linejoin="round" stroke-linecap="butt" d="m746.01575 481.18372l115.87402 -2.6456604" fill-rule="evenodd"/><path fill="#000000" fill-opacity="0.0" d="m746.3228 279.65878l115.87402 -2.6456604" fill-rule="evenodd"/><path stroke="#ff0000" stroke-width="16.0" stroke-linejoin="round" stroke-linecap="butt" d="m746.3228 279.65878l115.87402 -2.6456604" fill-rule="evenodd"/><path fill="#000000" fill-opacity="0.0" d="m399.19815 368.70078l108.76117 -205.74146l108.76114 205.74146l-108.76114 205.74149z" fill-rule="evenodd"/><path stroke="#ff0000" stroke-width="16.0" stroke-linejoin="round" stroke-linecap="butt" d="m399.19815 368.70078l108.76117 -205.74146l108.76114 205.74146l-108.76114 205.74149z" fill-rule="evenodd"/><path fill="#000000" fill-opacity="0.0" d="m419.1168 320.48425l171.11813 0" fill-rule="evenodd"/><path stroke="#ff0000" stroke-width="16.0" stroke-linejoin="round" stroke-linecap="butt" d="m419.1168 320.48425l171.11813 0" fill-rule="evenodd"/><path fill="#000000" fill-opacity="0.0" d="m399.19815 368.70078l217.51181 0" fill-rule="evenodd"/><path stroke="#ff0000" stroke-width="16.0" stroke-linejoin="round" stroke-linecap="butt" d="m399.19815 368.70078l217.51181 0" fill-rule="evenodd"/><path fill="#000000" fill-opacity="0.0" d="m427.1404 422.21915l161.63779 2.677185" fill-rule="evenodd"/><path stroke="#ff0000" stroke-width="16.0" stroke-linejoin="round" stroke-linecap="butt" d="m427.1404 422.21915l161.63779 2.677185" fill-rule="evenodd"/><path fill="#000000" fill-opacity="0.0" d="m449.7152 481.18503l115.87402 -2.6456604" fill-rule="evenodd"/><path stroke="#ff0000" stroke-width="16.0" stroke-linejoin="round" stroke-linecap="butt" d="m449.7152 481.18503l115.87402 -2.6456604" fill-rule="evenodd"/><path fill="#000000" fill-opacity="0.0" d="m450.0223 279.6601l115.87399 -2.6456604" fill-rule="evenodd"/><path stroke="#ff0000" stroke-width="16.0" stroke-linejoin="round" stroke-linecap="butt" d="m450.0223 279.6601l115.87399 -2.6456604" fill-rule="evenodd"/></g></svg>