<svg version="1.1" viewBox="0.0 0.0 960.0 720.0" fill="none" stroke="none" stroke-linecap="square" stroke-miterlimit="10" xmlns:xlink="http://www.w3.org/1999/xlink" xmlns="http://www.w3.org/2000/svg"><clipPath id="p.0"><path d="m0 0l960.0 0l0 720.0l-960.0 0l0 -720.0z" clip-rule="nonzero"/></clipPath><g clip-path="url(#p.0)"><path fill="#000000" fill-opacity="0.0" d="m0 0l960.0 0l0 720.0l-960.0 0z" fill-rule="evenodd"/><path fill="#000000" fill-opacity="0.0" d="m667.16797 387.60104l108.76117 -205.74147l108.76117 205.74147l-108.76117 205.74149z" fill-rule="evenodd"/><path stroke="#6aa84f" stroke-width="16.0" stroke-linejoin="round" stroke-linecap="butt" d="m667.16797 387.60104l108.76117 -205.74147l108.76117 205.74147l-108.76117 205.74149z" fill-rule="evenodd"/><path fill="#000000" fill-opacity="0.0" d="m88.6063 387.60104l108.76115 -205.74147l108.761154 205.74147l-108.761154 205.74149z" fill-rule="evenodd"/><path stroke="#6aa84f" stroke-width="16.0" stroke-linejoin="round" stroke-linecap="butt" d="m88.6063 387.60104l108.76115 -205.74147l108.761154 205.74147l-108.761154 205.74149z" fill-rule="evenodd"/><path fill="#000000" fill-opacity="0.0" d="m364.10892 387.60104l108.76117 -205.74147l108.76114 205.74147l-108.76114 205.74149z" fill-rule="evenodd"/><path stroke="#6aa84f" stroke-width="16.0" stroke-linejoin="round" stroke-linecap="butt" d="m364.10892 387.60104l108.76117 -205.74147l108.76114 205.74147l-108.76114 205.74149z" fill-rule="evenodd"/></g></svg>