<svg version="1.1" viewBox="0.0 0.0 960.0 720.0" fill="none" stroke="none" stroke-linecap="square" stroke-miterlimit="10" xmlns:xlink="http://www.w3.org/1999/xlink" xmlns="http://www.w3.org/2000/svg"><clipPath id="p.0"><path d="m0 0l960.0 0l0 720.0l-960.0 0l0 -720.0z" clip-rule="nonzero"/></clipPath><g clip-path="url(#p.0)"><path fill="#000000" fill-opacity="0.0" d="m0 0l960.0 0l0 720.0l-960.0 0z" fill-rule="evenodd"/><path fill="#000000" fill-opacity="0.0" d="m364.10892 387.60104l108.76117 -205.74147l108.76114 205.74147l-108.76114 205.74149z" fill-rule="evenodd"/><path stroke="#6aa84f" stroke-width="16.0" stroke-linejoin="round" stroke-linecap="butt" d="m364.10892 387.60104l108.76117 -205.74147l108.76114 205.74147l-108.76114 205.74149z" fill-rule="evenodd"/><path fill="#000000" fill-opacity="0.0" d="m421.39108 271.17847l102.9606 1.448822" fill-rule="evenodd"/><path stroke="#6aa84f" stroke-width="16.0" stroke-linejoin="round" stroke-linecap="butt" d="m421.39108 271.17847l102.9606 1.448822" fill-rule="evenodd"/><path fill="#000000" fill-opacity="0.0" d="m421.39108 491.6483l102.9606 1.448822" fill-rule="evenodd"/><path stroke="#6aa84f" stroke-width="16.0" stroke-linejoin="round" stroke-linecap="butt" d="m421.39108 491.6483l102.9606 1.448822" fill-rule="evenodd"/><path fill="#000000" fill-opacity="0.0" d="m372.1824 389.11285l209.44882 -1.5118103" fill-rule="evenodd"/><path stroke="#6aa84f" stroke-width="16.0" stroke-linejoin="round" stroke-linecap="butt" d="m372.1824 389.11285l209.44882 -1.5118103" fill-rule="evenodd"/><path fill="#000000" fill-opacity="0.0" d="m396.8819 329.38977l155.62207 4.1574707" fill-rule="evenodd"/><path stroke="#6aa84f" stroke-width="16.0" stroke-linejoin="round" stroke-linecap="butt" d="m396.8819 329.38977l155.62207 4.1574707" fill-rule="evenodd"/><path fill="#000000" fill-opacity="0.0" d="m396.8819 439.65616l155.62207 1.1968689" fill-rule="evenodd"/><path stroke="#6aa84f" stroke-width="16.0" stroke-linejoin="round" stroke-linecap="butt" d="m396.8819 439.65616l155.62207 1.1968689" fill-rule="evenodd"/></g></svg>