<svg version="1.1" viewBox="0.0 0.0 960.0 720.0" fill="none" stroke="none" stroke-linecap="square" stroke-miterlimit="10" xmlns:xlink="http://www.w3.org/1999/xlink" xmlns="http://www.w3.org/2000/svg"><clipPath id="p.0"><path d="m0 0l960.0 0l0 720.0l-960.0 0l0 -720.0z" clip-rule="nonzero"/></clipPath><g clip-path="url(#p.0)"><path fill="#000000" fill-opacity="0.0" d="m0 0l960.0 0l0 720.0l-960.0 0z" fill-rule="evenodd"/><path fill="#000000" fill-opacity="0.0" d="m382.49344 394.1063l108.76117 -205.74147l108.76114 205.74147l-108.76114 205.74149z" fill-rule="evenodd"/><path stroke="#a64d79" stroke-width="16.0" stroke-linejoin="round" stroke-linecap="butt" d="m382.49344 394.1063l108.76117 -205.74147l108.76114 205.74147l-108.76114 205.74149z" fill-rule="evenodd"/><path fill="#000000" fill-opacity="0.0" d="m382.49344 394.1063l217.51181 0" fill-rule="evenodd"/><path stroke="#a64d79" stroke-width="16.0" stroke-linejoin="round" stroke-linecap="butt" d="m382.49344 394.1063l217.51181 0" fill-rule="evenodd"/><path fill="#000000" fill-opacity="0.0" d="m406.38846 451.77036l169.73227 2.3621826" fill-rule="evenodd"/><path stroke="#a64d79" stroke-width="16.0" stroke-linejoin="round" stroke-linecap="butt" d="m406.38846 451.77036l169.73227 2.3621826" fill-rule="evenodd"/><path fill="#000000" fill-opacity="0.0" d="m406.3832 341.57086l169.73227 2.3622131" fill-rule="evenodd"/><path stroke="#a64d79" stroke-width="16.0" stroke-linejoin="round" stroke-linecap="butt" d="m406.3832 341.57086l169.73227 2.3622131" fill-rule="evenodd"/><path fill="#000000" fill-opacity="0.0" d="m443.02887 519.69946l88.8819 1.9842529" fill-rule="evenodd"/><path stroke="#a64d79" stroke-width="16.0" stroke-linejoin="round" stroke-linecap="butt" d="m443.02887 519.69946l88.8819 1.9842529" fill-rule="evenodd"/><path fill="#000000" fill-opacity="0.0" d="m436.03674 289.03543l105.921265 -0.1574707" fill-rule="evenodd"/><path stroke="#a64d79" stroke-width="16.0" stroke-linejoin="round" stroke-linecap="butt" d="m436.03674 289.03543l105.921265 -0.1574707" fill-rule="evenodd"/></g></svg>