<svg version="1.1" viewBox="0.0 0.0 960.0 720.0" fill="none" stroke="none" stroke-linecap="square" stroke-miterlimit="10" xmlns:xlink="http://www.w3.org/1999/xlink" xmlns="http://www.w3.org/2000/svg"><clipPath id="p.0"><path d="m0 0l960.0 0l0 720.0l-960.0 0l0 -720.0z" clip-rule="nonzero"/></clipPath><g clip-path="url(#p.0)"><path fill="#000000" fill-opacity="0.0" d="m0 0l960.0 0l0 720.0l-960.0 0z" fill-rule="evenodd"/><path fill="#000000" fill-opacity="0.0" d="m621.0551 394.1076l108.76117 -205.74147l108.76117 205.74147l-108.76117 205.74146z" fill-rule="evenodd"/><path stroke="#a64d79" stroke-width="16.0" stroke-linejoin="round" stroke-linecap="butt" d="m621.0551 394.1076l108.76117 -205.74147l108.76117 205.74147l-108.76117 205.74146z" fill-rule="evenodd"/><path fill="#000000" fill-opacity="0.0" d="m621.0551 394.1076l217.51184 0" fill-rule="evenodd"/><path stroke="#a64d79" stroke-width="16.0" stroke-linejoin="round" stroke-linecap="butt" d="m621.0551 394.1076l217.51184 0" fill-rule="evenodd"/><path fill="#000000" fill-opacity="0.0" d="m644.95013 451.77167l169.7323 2.3621826" fill-rule="evenodd"/><path stroke="#a64d79" stroke-width="16.0" stroke-linejoin="round" stroke-linecap="butt" d="m644.95013 451.77167l169.7323 2.3621826" fill-rule="evenodd"/><path fill="#000000" fill-opacity="0.0" d="m644.9449 341.57217l169.7323 2.3622131" fill-rule="evenodd"/><path stroke="#a64d79" stroke-width="16.0" stroke-linejoin="round" stroke-linecap="butt" d="m644.9449 341.57217l169.7323 2.3622131" fill-rule="evenodd"/><path fill="#000000" fill-opacity="0.0" d="m681.5906 519.7008l88.881836 1.9842529" fill-rule="evenodd"/><path stroke="#a64d79" stroke-width="16.0" stroke-linejoin="round" stroke-linecap="butt" d="m681.5906 519.7008l88.881836 1.9842529" fill-rule="evenodd"/><path fill="#000000" fill-opacity="0.0" d="m674.59845 289.03674l105.921265 -0.1574707" fill-rule="evenodd"/><path stroke="#a64d79" stroke-width="16.0" stroke-linejoin="round" stroke-linecap="butt" d="m674.59845 289.03674l105.921265 -0.1574707" fill-rule="evenodd"/><path fill="#000000" fill-opacity="0.0" d="m152.7454 394.1076l108.761154 -205.74147l108.76117 205.74147l-108.76117 205.74146z" fill-rule="evenodd"/><path stroke="#a64d79" stroke-width="16.0" stroke-linejoin="round" stroke-linecap="butt" d="m152.7454 394.1076l108.761154 -205.74147l108.76117 205.74147l-108.76117 205.74146z" fill-rule="evenodd"/><path fill="#000000" fill-opacity="0.0" d="m152.7454 394.1076l217.51183 0" fill-rule="evenodd"/><path stroke="#a64d79" stroke-width="16.0" stroke-linejoin="round" stroke-linecap="butt" d="m152.7454 394.1076l217.51183 0" fill-rule="evenodd"/><path fill="#000000" fill-opacity="0.0" d="m176.64043 451.77167l169.73228 2.3621826" fill-rule="evenodd"/><path stroke="#a64d79" stroke-width="16.0" stroke-linejoin="round" stroke-linecap="butt" d="m176.64043 451.77167l169.73228 2.3621826" fill-rule="evenodd"/><path fill="#000000" fill-opacity="0.0" d="m176.63518 341.57217l169.73228 2.3622131" fill-rule="evenodd"/><path stroke="#a64d79" stroke-width="16.0" stroke-linejoin="round" stroke-linecap="butt" d="m176.63518 341.57217l169.73228 2.3622131" fill-rule="evenodd"/><path fill="#000000" fill-opacity="0.0" d="m213.28084 519.7008l88.88188 1.9842529" fill-rule="evenodd"/><path stroke="#a64d79" stroke-width="16.0" stroke-linejoin="round" stroke-linecap="butt" d="m213.28084 519.7008l88.88188 1.9842529" fill-rule="evenodd"/><path fill="#000000" fill-opacity="0.0" d="m206.28871 289.03674l105.92125 -0.1574707" fill-rule="evenodd"/><path stroke="#a64d79" stroke-width="16.0" stroke-linejoin="round" stroke-linecap="butt" d="m206.28871 289.03674l105.92125 -0.1574707" fill-rule="evenodd"/></g></svg>