<svg version="1.1" viewBox="0.0 0.0 960.0 720.0" fill="none" stroke="none" stroke-linecap="square" stroke-miterlimit="10" xmlns:xlink="http://www.w3.org/1999/xlink" xmlns="http://www.w3.org/2000/svg"><clipPath id="p.0"><path d="m0 0l960.0 0l0 720.0l-960.0 0l0 -720.0z" clip-rule="nonzero"/></clipPath><g clip-path="url(#p.0)"><path fill="#000000" fill-opacity="0.0" d="m0 0l960.0 0l0 720.0l-960.0 0z" fill-rule="evenodd"/><path fill="#000000" fill-opacity="0.0" d="m656.98425 394.1063l108.76117 -205.74147l108.76117 205.74147l-108.76117 205.74149z" fill-rule="evenodd"/><path stroke="#a64d79" stroke-width="16.0" stroke-linejoin="round" stroke-linecap="butt" d="m656.98425 394.1063l108.76117 -205.74147l108.76117 205.74147l-108.76117 205.74149z" fill-rule="evenodd"/><path fill="#000000" fill-opacity="0.0" d="m656.98425 394.1063l217.51178 0" fill-rule="evenodd"/><path stroke="#a64d79" stroke-width="16.0" stroke-linejoin="round" stroke-linecap="butt" d="m656.98425 394.1063l217.51178 0" fill-rule="evenodd"/><path fill="#000000" fill-opacity="0.0" d="m680.8793 451.77036l169.7323 2.3621826" fill-rule="evenodd"/><path stroke="#a64d79" stroke-width="16.0" stroke-linejoin="round" stroke-linecap="butt" d="m680.8793 451.77036l169.7323 2.3621826" fill-rule="evenodd"/><path fill="#000000" fill-opacity="0.0" d="m680.874 341.57086l169.7323 2.3622131" fill-rule="evenodd"/><path stroke="#a64d79" stroke-width="16.0" stroke-linejoin="round" stroke-linecap="butt" d="m680.874 341.57086l169.7323 2.3622131" fill-rule="evenodd"/><path fill="#000000" fill-opacity="0.0" d="m717.5197 519.69946l88.881836 1.9842529" fill-rule="evenodd"/><path stroke="#a64d79" stroke-width="16.0" stroke-linejoin="round" stroke-linecap="butt" d="m717.5197 519.69946l88.881836 1.9842529" fill-rule="evenodd"/><path fill="#000000" fill-opacity="0.0" d="m710.5276 289.03543l105.9212 -0.1574707" fill-rule="evenodd"/><path stroke="#a64d79" stroke-width="16.0" stroke-linejoin="round" stroke-linecap="butt" d="m710.5276 289.03543l105.9212 -0.1574707" fill-rule="evenodd"/><path fill="#000000" fill-opacity="0.0" d="m116.81628 394.1076l108.76115 -205.74147l108.76117 205.74147l-108.76117 205.74146z" fill-rule="evenodd"/><path stroke="#a64d79" stroke-width="16.0" stroke-linejoin="round" stroke-linecap="butt" d="m116.81628 394.1076l108.76115 -205.74147l108.76117 205.74147l-108.76117 205.74146z" fill-rule="evenodd"/><path fill="#000000" fill-opacity="0.0" d="m116.81628 394.1076l217.51181 0" fill-rule="evenodd"/><path stroke="#a64d79" stroke-width="16.0" stroke-linejoin="round" stroke-linecap="butt" d="m116.81628 394.1076l217.51181 0" fill-rule="evenodd"/><path fill="#000000" fill-opacity="0.0" d="m140.71129 451.77167l169.73228 2.3621826" fill-rule="evenodd"/><path stroke="#a64d79" stroke-width="16.0" stroke-linejoin="round" stroke-linecap="butt" d="m140.71129 451.77167l169.73228 2.3621826" fill-rule="evenodd"/><path fill="#000000" fill-opacity="0.0" d="m140.70604 341.57217l169.73228 2.3622131" fill-rule="evenodd"/><path stroke="#a64d79" stroke-width="16.0" stroke-linejoin="round" stroke-linecap="butt" d="m140.70604 341.57217l169.73228 2.3622131" fill-rule="evenodd"/><path fill="#000000" fill-opacity="0.0" d="m177.3517 519.7008l88.88188 1.9842529" fill-rule="evenodd"/><path stroke="#a64d79" stroke-width="16.0" stroke-linejoin="round" stroke-linecap="butt" d="m177.3517 519.7008l88.88188 1.9842529" fill-rule="evenodd"/><path fill="#000000" fill-opacity="0.0" d="m170.35957 289.03674l105.92128 -0.1574707" fill-rule="evenodd"/><path stroke="#a64d79" stroke-width="16.0" stroke-linejoin="round" stroke-linecap="butt" d="m170.35957 289.03674l105.92128 -0.1574707" fill-rule="evenodd"/><path fill="#000000" fill-opacity="0.0" d="m386.90027 394.1063l108.76114 -205.74147l108.76114 205.74147l-108.76114 205.74149z" fill-rule="evenodd"/><path stroke="#a64d79" stroke-width="16.0" stroke-linejoin="round" stroke-linecap="butt" d="m386.90027 394.1063l108.76114 -205.74147l108.76114 205.74147l-108.76114 205.74149z" fill-rule="evenodd"/><path fill="#000000" fill-opacity="0.0" d="m386.90027 394.1063l217.51178 0" fill-rule="evenodd"/><path stroke="#a64d79" stroke-width="16.0" stroke-linejoin="round" stroke-linecap="butt" d="m386.90027 394.1063l217.51178 0" fill-rule="evenodd"/><path fill="#000000" fill-opacity="0.0" d="m410.7953 451.77036l169.7323 2.3621826" fill-rule="evenodd"/><path stroke="#a64d79" stroke-width="16.0" stroke-linejoin="round" stroke-linecap="butt" d="m410.7953 451.77036l169.7323 2.3621826" fill-rule="evenodd"/><path fill="#000000" fill-opacity="0.0" d="m410.79004 341.57086l169.7323 2.3622131" fill-rule="evenodd"/><path stroke="#a64d79" stroke-width="16.0" stroke-linejoin="round" stroke-linecap="butt" d="m410.79004 341.57086l169.7323 2.3622131" fill-rule="evenodd"/><path fill="#000000" fill-opacity="0.0" d="m447.4357 519.69946l88.88187 1.9842529" fill-rule="evenodd"/><path stroke="#a64d79" stroke-width="16.0" stroke-linejoin="round" stroke-linecap="butt" d="m447.4357 519.69946l88.88187 1.9842529" fill-rule="evenodd"/><path fill="#000000" fill-opacity="0.0" d="m440.44357 289.03543l105.921234 -0.1574707" fill-rule="evenodd"/><path stroke="#a64d79" stroke-width="16.0" stroke-linejoin="round" stroke-linecap="butt" d="m440.44357 289.03543l105.921234 -0.1574707" fill-rule="evenodd"/></g></svg>