<svg version="1.1" viewBox="0.0 0.0 960.0 720.0" fill="none" stroke="none" stroke-linecap="square" stroke-miterlimit="10" xmlns:xlink="http://www.w3.org/1999/xlink" xmlns="http://www.w3.org/2000/svg"><clipPath id="p.0"><path d="m0 0l960.0 0l0 720.0l-960.0 0l0 -720.0z" clip-rule="nonzero"/></clipPath><g clip-path="url(#p.0)"><path fill="#000000" fill-opacity="0.0" d="m0 0l960.0 0l0 720.0l-960.0 0z" fill-rule="evenodd"/><path fill="#000000" fill-opacity="0.0" d="m116.874016 394.5092l0 0c0 -113.6315 48.691673 -205.74803 108.75591 -205.74803l0 0c28.843857 0 56.506332 21.676956 76.90202 60.262207c20.39569 38.58525 31.853882 90.918045 31.853882 145.48582l0 0c0 113.6315 -48.69168 205.74802 -108.755905 205.74802l0 0c-60.06424 0 -108.75591 -92.116516 -108.75591 -205.74802z" fill-rule="evenodd"/><path stroke="#ff0000" stroke-width="16.0" stroke-linejoin="round" stroke-linecap="butt" d="m116.874016 394.5092l0 0c0 -113.6315 48.691673 -205.74803 108.75591 -205.74803l0 0c28.843857 0 56.506332 21.676956 76.90202 60.262207c20.39569 38.58525 31.853882 90.918045 31.853882 145.48582l0 0c0 113.6315 -48.69168 205.74802 -108.755905 205.74802l0 0c-60.06424 0 -108.75591 -92.116516 -108.75591 -205.74802z" fill-rule="evenodd"/><path fill="#000000" fill-opacity="0.0" d="m622.93176 394.5092l0 0c0 -113.6315 48.69165 -205.74803 108.75592 -205.74803l0 0c28.843811 0 56.506348 21.676956 76.90204 60.262207c20.39569 38.58525 31.85382 90.918045 31.85382 145.48582l0 0c0 113.6315 -48.69165 205.74802 -108.75586 205.74802l0 0c-60.06427 0 -108.75592 -92.116516 -108.75592 -205.74802z" fill-rule="evenodd"/><path stroke="#ff0000" stroke-width="16.0" stroke-linejoin="round" stroke-linecap="butt" d="m622.93176 394.5092l0 0c0 -113.6315 48.69165 -205.74803 108.75592 -205.74803l0 0c28.843811 0 56.506348 21.676956 76.90204 60.262207c20.39569 38.58525 31.85382 90.918045 31.85382 145.48582l0 0c0 113.6315 -48.69165 205.74802 -108.75586 205.74802l0 0c-60.06427 0 -108.75592 -92.116516 -108.75592 -205.74802z" fill-rule="evenodd"/><path fill="#000000" fill-opacity="0.0" d="m369.9029 394.5092l0 0c0 -113.6315 48.69168 -205.74803 108.75589 -205.74803l0 0c28.843872 0 56.50638 21.676956 76.90207 60.262207c20.39569 38.58525 31.85382 90.918045 31.85382 145.48582l0 0c0 113.6315 -48.69165 205.74802 -108.75589 205.74802l0 0c-60.06421 0 -108.75589 -92.116516 -108.75589 -205.74802z" fill-rule="evenodd"/><path stroke="#ff0000" stroke-width="16.0" stroke-linejoin="round" stroke-linecap="butt" d="m369.9029 394.5092l0 0c0 -113.6315 48.69168 -205.74803 108.75589 -205.74803l0 0c28.843872 0 56.50638 21.676956 76.90207 60.262207c20.39569 38.58525 31.85382 90.918045 31.85382 145.48582l0 0c0 113.6315 -48.69165 205.74802 -108.75589 205.74802l0 0c-60.06421 0 -108.75589 -92.116516 -108.75589 -205.74802z" fill-rule="evenodd"/></g></svg>