<svg version="1.1" viewBox="0.0 0.0 960.0 720.0" fill="none" stroke="none" stroke-linecap="square" stroke-miterlimit="10" xmlns:xlink="http://www.w3.org/1999/xlink" xmlns="http://www.w3.org/2000/svg"><clipPath id="p.0"><path d="m0 0l960.0 0l0 720.0l-960.0 0l0 -720.0z" clip-rule="nonzero"/></clipPath><g clip-path="url(#p.0)"><path fill="#000000" fill-opacity="0.0" d="m0 0l960.0 0l0 720.0l-960.0 0z" fill-rule="evenodd"/><path fill="#000000" fill-opacity="0.0" d="m604.15485 407.63516l0 0c0 -113.6315 48.69171 -205.74802 108.75592 -205.74802l0 0c28.843872 0 56.506348 21.676956 76.90204 60.262207c20.39569 38.585236 31.853882 90.91806 31.853882 145.48581l0 0c0 113.6315 -48.69171 205.74802 -108.75592 205.74802l0 0c-60.06421 0 -108.75592 -92.116516 -108.75592 -205.74802z" fill-rule="evenodd"/><path stroke="#ff0000" stroke-width="16.0" stroke-linejoin="round" stroke-linecap="butt" d="m604.15485 407.63516l0 0c0 -113.6315 48.69171 -205.74802 108.75592 -205.74802l0 0c28.843872 0 56.506348 21.676956 76.90204 60.262207c20.39569 38.585236 31.853882 90.91806 31.853882 145.48581l0 0c0 113.6315 -48.69171 205.74802 -108.75592 205.74802l0 0c-60.06421 0 -108.75592 -92.116516 -108.75592 -205.74802z" fill-rule="evenodd"/><path fill="#000000" fill-opacity="0.0" d="m604.15485 407.63516l217.51184 0" fill-rule="evenodd"/><path stroke="#ff0000" stroke-width="16.0" stroke-linejoin="round" stroke-linecap="butt" d="m604.15485 407.63516l217.51184 0" fill-rule="evenodd"/><path fill="#000000" fill-opacity="0.0" d="m636.0087 553.121l153.79529 0" fill-rule="evenodd"/><path stroke="#ff0000" stroke-width="16.0" stroke-linejoin="round" stroke-linecap="butt" d="m636.0087 553.121l153.79529 0" fill-rule="evenodd"/><path fill="#000000" fill-opacity="0.0" d="m636.0087 262.14935l153.79529 0" fill-rule="evenodd"/><path stroke="#ff0000" stroke-width="16.0" stroke-linejoin="round" stroke-linecap="butt" d="m636.0087 262.14935l153.79529 0" fill-rule="evenodd"/><path fill="#000000" fill-opacity="0.0" d="m618.126 330.72964l192.56696 0" fill-rule="evenodd"/><path stroke="#ff0000" stroke-width="16.0" stroke-linejoin="round" stroke-linecap="butt" d="m618.126 330.72964l192.56696 0" fill-rule="evenodd"/><path fill="#000000" fill-opacity="0.0" d="m615.25195 485.93964l195.4646 -4.314972" fill-rule="evenodd"/><path stroke="#ff0000" stroke-width="16.0" stroke-linejoin="round" stroke-linecap="butt" d="m615.25195 485.93964l195.4646 -4.314972" fill-rule="evenodd"/><path fill="#000000" fill-opacity="0.0" d="m152.39108 407.63516l0 0c0 -113.6315 48.691666 -205.74802 108.75589 -205.74802l0 0c28.843872 0 56.506348 21.676956 76.90204 60.262207c20.39569 38.585236 31.853882 90.91806 31.853882 145.48581l0 0c0 113.6315 -48.69168 205.74802 -108.75592 205.74802l0 0c-60.064224 0 -108.75589 -92.116516 -108.75589 -205.74802z" fill-rule="evenodd"/><path stroke="#ff0000" stroke-width="16.0" stroke-linejoin="round" stroke-linecap="butt" d="m152.39108 407.63516l0 0c0 -113.6315 48.691666 -205.74802 108.75589 -205.74802l0 0c28.843872 0 56.506348 21.676956 76.90204 60.262207c20.39569 38.585236 31.853882 90.91806 31.853882 145.48581l0 0c0 113.6315 -48.69168 205.74802 -108.75592 205.74802l0 0c-60.064224 0 -108.75589 -92.116516 -108.75589 -205.74802z" fill-rule="evenodd"/><path fill="#000000" fill-opacity="0.0" d="m152.39108 407.63516l217.51181 0" fill-rule="evenodd"/><path stroke="#ff0000" stroke-width="16.0" stroke-linejoin="round" stroke-linecap="butt" d="m152.39108 407.63516l217.51181 0" fill-rule="evenodd"/><path fill="#000000" fill-opacity="0.0" d="m184.24495 553.121l153.79527 0" fill-rule="evenodd"/><path stroke="#ff0000" stroke-width="16.0" stroke-linejoin="round" stroke-linecap="butt" d="m184.24495 553.121l153.79527 0" fill-rule="evenodd"/><path fill="#000000" fill-opacity="0.0" d="m184.24495 262.14935l153.79527 0" fill-rule="evenodd"/><path stroke="#ff0000" stroke-width="16.0" stroke-linejoin="round" stroke-linecap="butt" d="m184.24495 262.14935l153.79527 0" fill-rule="evenodd"/><path fill="#000000" fill-opacity="0.0" d="m166.3622 330.72964l192.56694 0" fill-rule="evenodd"/><path stroke="#ff0000" stroke-width="16.0" stroke-linejoin="round" stroke-linecap="butt" d="m166.3622 330.72964l192.56694 0" fill-rule="evenodd"/><path fill="#000000" fill-opacity="0.0" d="m163.48819 485.93964l195.46457 -4.314972" fill-rule="evenodd"/><path stroke="#ff0000" stroke-width="16.0" stroke-linejoin="round" stroke-linecap="butt" d="m163.48819 485.93964l195.46457 -4.314972" fill-rule="evenodd"/></g></svg>