<svg version="1.1" viewBox="0.0 0.0 960.0 720.0" fill="none" stroke="none" stroke-linecap="square" stroke-miterlimit="10" xmlns:xlink="http://www.w3.org/1999/xlink" xmlns="http://www.w3.org/2000/svg"><clipPath id="p.0"><path d="m0 0l960.0 0l0 720.0l-960.0 0l0 -720.0z" clip-rule="nonzero"/></clipPath><g clip-path="url(#p.0)"><path fill="#000000" fill-opacity="0.0" d="m0 0l960.0 0l0 720.0l-960.0 0z" fill-rule="evenodd"/><path fill="#000000" fill-opacity="0.0" d="m651.5801 404.76117l0 0c0 -113.6315 48.69165 -205.74805 108.75586 -205.74805l0 0c28.843872 0 56.506348 21.676956 76.90204 60.262207c20.39569 38.585236 31.853882 90.91806 31.853882 145.48584l0 0c0 113.63147 -48.69165 205.74805 -108.75592 205.74805l0 0c-60.06421 0 -108.75586 -92.11658 -108.75586 -205.74805z" fill-rule="evenodd"/><path stroke="#ff0000" stroke-width="16.0" stroke-linejoin="round" stroke-linecap="butt" d="m651.5801 404.76117l0 0c0 -113.6315 48.69165 -205.74805 108.75586 -205.74805l0 0c28.843872 0 56.506348 21.676956 76.90204 60.262207c20.39569 38.585236 31.853882 90.91806 31.853882 145.48584l0 0c0 113.63147 -48.69165 205.74805 -108.75592 205.74805l0 0c-60.06421 0 -108.75586 -92.11658 -108.75586 -205.74805z" fill-rule="evenodd"/><path fill="#000000" fill-opacity="0.0" d="m651.5801 404.76117l217.51178 0" fill-rule="evenodd"/><path stroke="#ff0000" stroke-width="16.0" stroke-linejoin="round" stroke-linecap="butt" d="m651.5801 404.76117l217.51178 0" fill-rule="evenodd"/><path fill="#000000" fill-opacity="0.0" d="m683.4339 550.247l153.79529 0" fill-rule="evenodd"/><path stroke="#ff0000" stroke-width="16.0" stroke-linejoin="round" stroke-linecap="butt" d="m683.4339 550.247l153.79529 0" fill-rule="evenodd"/><path fill="#000000" fill-opacity="0.0" d="m683.4339 259.27533l153.79529 0" fill-rule="evenodd"/><path stroke="#ff0000" stroke-width="16.0" stroke-linejoin="round" stroke-linecap="butt" d="m683.4339 259.27533l153.79529 0" fill-rule="evenodd"/><path fill="#000000" fill-opacity="0.0" d="m665.5512 327.85565l192.5669 0" fill-rule="evenodd"/><path stroke="#ff0000" stroke-width="16.0" stroke-linejoin="round" stroke-linecap="butt" d="m665.5512 327.85565l192.5669 0" fill-rule="evenodd"/><path fill="#000000" fill-opacity="0.0" d="m662.6772 483.0656l195.46454 -4.3149414" fill-rule="evenodd"/><path stroke="#ff0000" stroke-width="16.0" stroke-linejoin="round" stroke-linecap="butt" d="m662.6772 483.0656l195.46454 -4.3149414" fill-rule="evenodd"/><path fill="#000000" fill-opacity="0.0" d="m112.149605 399.0105l0 0c0 -113.6315 48.691673 -205.74803 108.75591 -205.74803l0 0c28.843857 0 56.506348 21.676956 76.90204 60.262207c20.39569 38.58525 31.853851 90.918045 31.853851 145.48582l0 0c0 113.63153 -48.69168 205.74805 -108.75589 205.74805l0 0c-60.06424 0 -108.75591 -92.116516 -108.75591 -205.74805z" fill-rule="evenodd"/><path stroke="#ff0000" stroke-width="16.0" stroke-linejoin="round" stroke-linecap="butt" d="m112.149605 399.0105l0 0c0 -113.6315 48.691673 -205.74803 108.75591 -205.74803l0 0c28.843857 0 56.506348 21.676956 76.90204 60.262207c20.39569 38.58525 31.853851 90.918045 31.853851 145.48582l0 0c0 113.63153 -48.69168 205.74805 -108.75589 205.74805l0 0c-60.06424 0 -108.75591 -92.116516 -108.75591 -205.74805z" fill-rule="evenodd"/><path fill="#000000" fill-opacity="0.0" d="m112.149605 399.0105l217.51181 0" fill-rule="evenodd"/><path stroke="#ff0000" stroke-width="16.0" stroke-linejoin="round" stroke-linecap="butt" d="m112.149605 399.0105l217.51181 0" fill-rule="evenodd"/><path fill="#000000" fill-opacity="0.0" d="m144.00348 544.49634l153.79526 0" fill-rule="evenodd"/><path stroke="#ff0000" stroke-width="16.0" stroke-linejoin="round" stroke-linecap="butt" d="m144.00348 544.49634l153.79526 0" fill-rule="evenodd"/><path fill="#000000" fill-opacity="0.0" d="m144.00348 253.52467l153.79526 0" fill-rule="evenodd"/><path stroke="#ff0000" stroke-width="16.0" stroke-linejoin="round" stroke-linecap="butt" d="m144.00348 253.52467l153.79526 0" fill-rule="evenodd"/><path fill="#000000" fill-opacity="0.0" d="m126.120735 322.10498l192.56693 0" fill-rule="evenodd"/><path stroke="#ff0000" stroke-width="16.0" stroke-linejoin="round" stroke-linecap="butt" d="m126.120735 322.10498l192.56693 0" fill-rule="evenodd"/><path fill="#000000" fill-opacity="0.0" d="m123.24672 477.31497l195.46455 -4.314972" fill-rule="evenodd"/><path stroke="#ff0000" stroke-width="16.0" stroke-linejoin="round" stroke-linecap="butt" d="m123.24672 477.31497l195.46455 -4.314972" fill-rule="evenodd"/><path fill="#000000" fill-opacity="0.0" d="m388.8504 399.0105l0 0c0 -113.6315 48.69168 -205.74803 108.75589 -205.74803l0 0c28.843842 0 56.50638 21.676956 76.90207 60.262207c20.39569 38.58525 31.85382 90.918045 31.85382 145.48582l0 0c0 113.63153 -48.69165 205.74805 -108.75589 205.74805l0 0c-60.06421 0 -108.75589 -92.116516 -108.75589 -205.74805z" fill-rule="evenodd"/><path stroke="#ff0000" stroke-width="16.0" stroke-linejoin="round" stroke-linecap="butt" d="m388.8504 399.0105l0 0c0 -113.6315 48.69168 -205.74803 108.75589 -205.74803l0 0c28.843842 0 56.50638 21.676956 76.90207 60.262207c20.39569 38.58525 31.85382 90.918045 31.85382 145.48582l0 0c0 113.63153 -48.69165 205.74805 -108.75589 205.74805l0 0c-60.06421 0 -108.75589 -92.116516 -108.75589 -205.74805z" fill-rule="evenodd"/><path fill="#000000" fill-opacity="0.0" d="m388.8504 399.0105l217.51178 0" fill-rule="evenodd"/><path stroke="#ff0000" stroke-width="16.0" stroke-linejoin="round" stroke-linecap="butt" d="m388.8504 399.0105l217.51178 0" fill-rule="evenodd"/><path fill="#000000" fill-opacity="0.0" d="m420.70425 544.49634l153.79526 0" fill-rule="evenodd"/><path stroke="#ff0000" stroke-width="16.0" stroke-linejoin="round" stroke-linecap="butt" d="m420.70425 544.49634l153.79526 0" fill-rule="evenodd"/><path fill="#000000" fill-opacity="0.0" d="m420.70425 253.52467l153.79526 0" fill-rule="evenodd"/><path stroke="#ff0000" stroke-width="16.0" stroke-linejoin="round" stroke-linecap="butt" d="m420.70425 253.52467l153.79526 0" fill-rule="evenodd"/><path fill="#000000" fill-opacity="0.0" d="m402.82153 322.10498l192.5669 0" fill-rule="evenodd"/><path stroke="#ff0000" stroke-width="16.0" stroke-linejoin="round" stroke-linecap="butt" d="m402.82153 322.10498l192.5669 0" fill-rule="evenodd"/><path fill="#000000" fill-opacity="0.0" d="m399.9475 477.31497l195.46454 -4.314972" fill-rule="evenodd"/><path stroke="#ff0000" stroke-width="16.0" stroke-linejoin="round" stroke-linecap="butt" d="m399.9475 477.31497l195.46454 -4.314972" fill-rule="evenodd"/></g></svg>