<svg version="1.1" viewBox="0.0 0.0 960.0 720.0" fill="none" stroke="none" stroke-linecap="square" stroke-miterlimit="10" xmlns:xlink="http://www.w3.org/1999/xlink" xmlns="http://www.w3.org/2000/svg"><clipPath id="p.0"><path d="m0 0l960.0 0l0 720.0l-960.0 0l0 -720.0z" clip-rule="nonzero"/></clipPath><g clip-path="url(#p.0)"><path fill="#000000" fill-opacity="0.0" d="m0 0l960.0 0l0 720.0l-960.0 0z" fill-rule="evenodd"/><path fill="#000000" fill-opacity="0.0" d="m377.8058 377.4567l0 0c0 -113.6315 48.69165 -205.74803 108.75589 -205.74803l0 0c28.843842 0 56.50638 21.676956 76.90207 60.262207c20.39569 38.58522 31.85382 90.918045 31.85382 145.48582l0 0c0 113.6315 -48.69165 205.74802 -108.75589 205.74802l0 0c-60.06424 0 -108.75589 -92.116516 -108.75589 -205.74802z" fill-rule="evenodd"/><path stroke="#6aa84f" stroke-width="16.0" stroke-linejoin="round" stroke-linecap="butt" d="m377.8058 377.4567l0 0c0 -113.6315 48.69165 -205.74803 108.75589 -205.74803l0 0c28.843842 0 56.50638 21.676956 76.90207 60.262207c20.39569 38.58522 31.85382 90.918045 31.85382 145.48582l0 0c0 113.6315 -48.69165 205.74802 -108.75589 205.74802l0 0c-60.06424 0 -108.75589 -92.116516 -108.75589 -205.74802z" fill-rule="evenodd"/></g></svg>