<svg version="1.1" viewBox="0.0 0.0 960.0 720.0" fill="none" stroke="none" stroke-linecap="square" stroke-miterlimit="10" xmlns:xlink="http://www.w3.org/1999/xlink" xmlns="http://www.w3.org/2000/svg"><clipPath id="p.0"><path d="m0 0l960.0 0l0 720.0l-960.0 0l0 -720.0z" clip-rule="nonzero"/></clipPath><g clip-path="url(#p.0)"><path fill="#000000" fill-opacity="0.0" d="m0 0l960.0 0l0 720.0l-960.0 0z" fill-rule="evenodd"/><path fill="#000000" fill-opacity="0.0" d="m92.125984 386.20734l0 0c0 -113.6315 48.691673 -205.74802 108.75591 -205.74802l0 0c28.843857 0 56.506348 21.676956 76.90204 60.262207c20.39569 38.585236 31.853851 90.91806 31.853851 145.48581l0 0c0 113.6315 -48.69168 205.74805 -108.75589 205.74805l0 0c-60.06424 0 -108.75591 -92.11655 -108.75591 -205.74805z" fill-rule="evenodd"/><path stroke="#6aa84f" stroke-width="16.0" stroke-linejoin="round" stroke-linecap="butt" d="m92.125984 386.20734l0 0c0 -113.6315 48.691673 -205.74802 108.75591 -205.74802l0 0c28.843857 0 56.506348 21.676956 76.90204 60.262207c20.39569 38.585236 31.853851 90.91806 31.853851 145.48581l0 0c0 113.6315 -48.69168 205.74805 -108.75589 205.74805l0 0c-60.06424 0 -108.75591 -92.11655 -108.75591 -205.74805z" fill-rule="evenodd"/><path fill="#000000" fill-opacity="0.0" d="m647.5827 386.20734l0 0c0 -113.6315 48.69165 -205.74802 108.75586 -205.74802l0 0c28.843872 0 56.506348 21.676956 76.90204 60.262207c20.39569 38.585236 31.853882 90.91806 31.853882 145.48581l0 0c0 113.6315 -48.69165 205.74805 -108.75592 205.74805l0 0c-60.06421 0 -108.75586 -92.11655 -108.75586 -205.74805z" fill-rule="evenodd"/><path stroke="#6aa84f" stroke-width="16.0" stroke-linejoin="round" stroke-linecap="butt" d="m647.5827 386.20734l0 0c0 -113.6315 48.69165 -205.74802 108.75586 -205.74802l0 0c28.843872 0 56.506348 21.676956 76.90204 60.262207c20.39569 38.585236 31.853882 90.91806 31.853882 145.48581l0 0c0 113.6315 -48.69165 205.74805 -108.75592 205.74805l0 0c-60.06421 0 -108.75586 -92.11655 -108.75586 -205.74805z" fill-rule="evenodd"/></g></svg>