<svg version="1.1" viewBox="0.0 0.0 960.0 720.0" fill="none" stroke="none" stroke-linecap="square" stroke-miterlimit="10" xmlns:xlink="http://www.w3.org/1999/xlink" xmlns="http://www.w3.org/2000/svg"><clipPath id="p.0"><path d="m0 0l960.0 0l0 720.0l-960.0 0l0 -720.0z" clip-rule="nonzero"/></clipPath><g clip-path="url(#p.0)"><path fill="#000000" fill-opacity="0.0" d="m0 0l960.0 0l0 720.0l-960.0 0z" fill-rule="evenodd"/><path fill="#000000" fill-opacity="0.0" d="m371.24408 386.20734l0 0c0 -113.6315 48.69168 -205.74802 108.75592 -205.74802l0 0c28.843872 0 56.506348 21.676956 76.90204 60.262207c20.39569 38.585236 31.853882 90.91806 31.853882 145.48581l0 0c0 113.6315 -48.69171 205.74805 -108.75592 205.74805l0 0c-60.06424 0 -108.75592 -92.11655 -108.75592 -205.74805z" fill-rule="evenodd"/><path stroke="#6aa84f" stroke-width="16.0" stroke-linejoin="round" stroke-linecap="butt" d="m371.24408 386.20734l0 0c0 -113.6315 48.69168 -205.74802 108.75592 -205.74802l0 0c28.843872 0 56.506348 21.676956 76.90204 60.262207c20.39569 38.585236 31.853882 90.91806 31.853882 145.48581l0 0c0 113.6315 -48.69171 205.74805 -108.75592 205.74805l0 0c-60.06424 0 -108.75592 -92.11655 -108.75592 -205.74805z" fill-rule="evenodd"/><path fill="#000000" fill-opacity="0.0" d="m371.24408 386.20734l217.51184 0" fill-rule="evenodd"/><path stroke="#6aa84f" stroke-width="16.0" stroke-linejoin="round" stroke-linecap="butt" d="m371.24408 386.20734l217.51184 0" fill-rule="evenodd"/><path fill="#000000" fill-opacity="0.0" d="m403.09796 240.72153l153.79529 0" fill-rule="evenodd"/><path stroke="#6aa84f" stroke-width="16.0" stroke-linejoin="round" stroke-linecap="butt" d="m403.09796 240.72153l153.79529 0" fill-rule="evenodd"/><path fill="#000000" fill-opacity="0.0" d="m403.09796 531.6932l153.79529 0" fill-rule="evenodd"/><path stroke="#6aa84f" stroke-width="16.0" stroke-linejoin="round" stroke-linecap="butt" d="m403.09796 531.6932l153.79529 0" fill-rule="evenodd"/><path fill="#000000" fill-opacity="0.0" d="m387.1916 474.19946l194.33075 -2.8976135" fill-rule="evenodd"/><path stroke="#6aa84f" stroke-width="16.0" stroke-linejoin="round" stroke-linecap="butt" d="m387.1916 474.19946l194.33075 -2.8976135" fill-rule="evenodd"/><path fill="#000000" fill-opacity="0.0" d="m381.38846 316.13385l205.92123 4.346466" fill-rule="evenodd"/><path stroke="#6aa84f" stroke-width="16.0" stroke-linejoin="round" stroke-linecap="butt" d="m381.38846 316.13385l205.92123 4.346466" fill-rule="evenodd"/></g></svg>