<svg version="1.1" viewBox="0.0 0.0 960.0 720.0" fill="none" stroke="none" stroke-linecap="square" stroke-miterlimit="10" xmlns:xlink="http://www.w3.org/1999/xlink" xmlns="http://www.w3.org/2000/svg"><clipPath id="p.0"><path d="m0 0l960.0 0l0 720.0l-960.0 0l0 -720.0z" clip-rule="nonzero"/></clipPath><g clip-path="url(#p.0)"><path fill="#000000" fill-opacity="0.0" d="m0 0l960.0 0l0 720.0l-960.0 0z" fill-rule="evenodd"/><path fill="#000000" fill-opacity="0.0" d="m645.3228 386.20734l0 0c0 -113.6315 48.69171 -205.74802 108.75592 -205.74802l0 0c28.843872 0 56.506348 21.676956 76.90204 60.262207c20.39569 38.585236 31.853882 90.91806 31.853882 145.48581l0 0c0 113.6315 -48.69171 205.74805 -108.75592 205.74805l0 0c-60.06421 0 -108.75592 -92.11655 -108.75592 -205.74805z" fill-rule="evenodd"/><path stroke="#6aa84f" stroke-width="16.0" stroke-linejoin="round" stroke-linecap="butt" d="m645.3228 386.20734l0 0c0 -113.6315 48.69171 -205.74802 108.75592 -205.74802l0 0c28.843872 0 56.506348 21.676956 76.90204 60.262207c20.39569 38.585236 31.853882 90.91806 31.853882 145.48581l0 0c0 113.6315 -48.69171 205.74805 -108.75592 205.74805l0 0c-60.06421 0 -108.75592 -92.11655 -108.75592 -205.74805z" fill-rule="evenodd"/><path fill="#000000" fill-opacity="0.0" d="m645.3228 386.20734l217.51184 0" fill-rule="evenodd"/><path stroke="#6aa84f" stroke-width="16.0" stroke-linejoin="round" stroke-linecap="butt" d="m645.3228 386.20734l217.51184 0" fill-rule="evenodd"/><path fill="#000000" fill-opacity="0.0" d="m677.1767 240.72153l153.79529 0" fill-rule="evenodd"/><path stroke="#6aa84f" stroke-width="16.0" stroke-linejoin="round" stroke-linecap="butt" d="m677.1767 240.72153l153.79529 0" fill-rule="evenodd"/><path fill="#000000" fill-opacity="0.0" d="m677.1767 531.6932l153.79529 0" fill-rule="evenodd"/><path stroke="#6aa84f" stroke-width="16.0" stroke-linejoin="round" stroke-linecap="butt" d="m677.1767 531.6932l153.79529 0" fill-rule="evenodd"/><path fill="#000000" fill-opacity="0.0" d="m661.2703 474.19946l194.33075 -2.8976135" fill-rule="evenodd"/><path stroke="#6aa84f" stroke-width="16.0" stroke-linejoin="round" stroke-linecap="butt" d="m661.2703 474.19946l194.33075 -2.8976135" fill-rule="evenodd"/><path fill="#000000" fill-opacity="0.0" d="m655.46716 316.13385l205.92126 4.346466" fill-rule="evenodd"/><path stroke="#6aa84f" stroke-width="16.0" stroke-linejoin="round" stroke-linecap="butt" d="m655.46716 316.13385l205.92126 4.346466" fill-rule="evenodd"/><path fill="#000000" fill-opacity="0.0" d="m60.96063 386.20734l0 0c0 -113.6315 48.691677 -205.74802 108.755905 -205.74802l0 0c28.843857 0 56.506348 21.676956 76.90204 60.262207c20.395676 38.585236 31.853867 90.91806 31.853867 145.48581l0 0c0 113.6315 -48.69168 205.74805 -108.755905 205.74805l0 0c-60.06423 0 -108.755905 -92.11655 -108.755905 -205.74805z" fill-rule="evenodd"/><path stroke="#6aa84f" stroke-width="16.0" stroke-linejoin="round" stroke-linecap="butt" d="m60.96063 386.20734l0 0c0 -113.6315 48.691677 -205.74802 108.755905 -205.74802l0 0c28.843857 0 56.506348 21.676956 76.90204 60.262207c20.395676 38.585236 31.853867 90.91806 31.853867 145.48581l0 0c0 113.6315 -48.69168 205.74805 -108.755905 205.74805l0 0c-60.06423 0 -108.755905 -92.11655 -108.755905 -205.74805z" fill-rule="evenodd"/><path fill="#000000" fill-opacity="0.0" d="m60.96063 386.20734l217.51181 0" fill-rule="evenodd"/><path stroke="#6aa84f" stroke-width="16.0" stroke-linejoin="round" stroke-linecap="butt" d="m60.96063 386.20734l217.51181 0" fill-rule="evenodd"/><path fill="#000000" fill-opacity="0.0" d="m92.8145 240.72153l153.79527 0" fill-rule="evenodd"/><path stroke="#6aa84f" stroke-width="16.0" stroke-linejoin="round" stroke-linecap="butt" d="m92.8145 240.72153l153.79527 0" fill-rule="evenodd"/><path fill="#000000" fill-opacity="0.0" d="m92.8145 531.6932l153.79527 0" fill-rule="evenodd"/><path stroke="#6aa84f" stroke-width="16.0" stroke-linejoin="round" stroke-linecap="butt" d="m92.8145 531.6932l153.79527 0" fill-rule="evenodd"/><path fill="#000000" fill-opacity="0.0" d="m76.908134 474.19946l194.33069 -2.8976135" fill-rule="evenodd"/><path stroke="#6aa84f" stroke-width="16.0" stroke-linejoin="round" stroke-linecap="butt" d="m76.908134 474.19946l194.33069 -2.8976135" fill-rule="evenodd"/><path fill="#000000" fill-opacity="0.0" d="m71.10499 316.13385l205.92126 4.346466" fill-rule="evenodd"/><path stroke="#6aa84f" stroke-width="16.0" stroke-linejoin="round" stroke-linecap="butt" d="m71.10499 316.13385l205.92126 4.346466" fill-rule="evenodd"/><path fill="#000000" fill-opacity="0.0" d="m349.52493 386.20734l0 0c0 -113.6315 48.69168 -205.74802 108.75592 -205.74802l0 0c28.843842 0 56.506317 21.676956 76.90201 60.262207c20.39569 38.585236 31.853882 90.91806 31.853882 145.48581l0 0c0 113.6315 -48.69165 205.74805 -108.75589 205.74805l0 0c-60.06424 0 -108.75592 -92.11655 -108.75592 -205.74805z" fill-rule="evenodd"/><path stroke="#6aa84f" stroke-width="16.0" stroke-linejoin="round" stroke-linecap="butt" d="m349.52493 386.20734l0 0c0 -113.6315 48.69168 -205.74802 108.75592 -205.74802l0 0c28.843842 0 56.506317 21.676956 76.90201 60.262207c20.39569 38.585236 31.853882 90.91806 31.853882 145.48581l0 0c0 113.6315 -48.69165 205.74805 -108.75589 205.74805l0 0c-60.06424 0 -108.75592 -92.11655 -108.75592 -205.74805z" fill-rule="evenodd"/><path fill="#000000" fill-opacity="0.0" d="m349.52493 386.20734l217.51181 0" fill-rule="evenodd"/><path stroke="#6aa84f" stroke-width="16.0" stroke-linejoin="round" stroke-linecap="butt" d="m349.52493 386.20734l217.51181 0" fill-rule="evenodd"/><path fill="#000000" fill-opacity="0.0" d="m381.3788 240.72153l153.79526 0" fill-rule="evenodd"/><path stroke="#6aa84f" stroke-width="16.0" stroke-linejoin="round" stroke-linecap="butt" d="m381.3788 240.72153l153.79526 0" fill-rule="evenodd"/><path fill="#000000" fill-opacity="0.0" d="m381.3788 531.6932l153.79526 0" fill-rule="evenodd"/><path stroke="#6aa84f" stroke-width="16.0" stroke-linejoin="round" stroke-linecap="butt" d="m381.3788 531.6932l153.79526 0" fill-rule="evenodd"/><path fill="#000000" fill-opacity="0.0" d="m365.47244 474.19946l194.33072 -2.8976135" fill-rule="evenodd"/><path stroke="#6aa84f" stroke-width="16.0" stroke-linejoin="round" stroke-linecap="butt" d="m365.47244 474.19946l194.33072 -2.8976135" fill-rule="evenodd"/><path fill="#000000" fill-opacity="0.0" d="m359.66928 316.13385l205.9213 4.346466" fill-rule="evenodd"/><path stroke="#6aa84f" stroke-width="16.0" stroke-linejoin="round" stroke-linecap="butt" d="m359.66928 316.13385l205.9213 4.346466" fill-rule="evenodd"/></g></svg>