<svg version="1.1" viewBox="0.0 0.0 960.0 720.0" fill="none" stroke="none" stroke-linecap="square" stroke-miterlimit="10" xmlns:xlink="http://www.w3.org/1999/xlink" xmlns="http://www.w3.org/2000/svg"><clipPath id="p.0"><path d="m0 0l960.0 0l0 720.0l-960.0 0l0 -720.0z" clip-rule="nonzero"/></clipPath><g clip-path="url(#p.0)"><path fill="#000000" fill-opacity="0.0" d="m0 0l960.0 0l0 720.0l-960.0 0z" fill-rule="evenodd"/><path fill="#000000" fill-opacity="0.0" d="m73.96063 381.80054l0 0c0 -113.6315 48.691673 -205.74805 108.755905 -205.74805l0 0c28.843857 0 56.506348 21.676971 76.90202 60.262207c20.39569 38.585236 31.853882 90.91806 31.853882 145.48584l0 0c0 113.6315 -48.69168 205.74805 -108.755905 205.74805l0 0c-60.06423 0 -108.755905 -92.11655 -108.755905 -205.74805z" fill-rule="evenodd"/><path stroke="#a64d79" stroke-width="16.0" stroke-linejoin="round" stroke-linecap="butt" d="m73.96063 381.80054l0 0c0 -113.6315 48.691673 -205.74805 108.755905 -205.74805l0 0c28.843857 0 56.506348 21.676971 76.90202 60.262207c20.39569 38.585236 31.853882 90.91806 31.853882 145.48584l0 0c0 113.6315 -48.69168 205.74805 -108.755905 205.74805l0 0c-60.06423 0 -108.755905 -92.11655 -108.755905 -205.74805z" fill-rule="evenodd"/><path fill="#000000" fill-opacity="0.0" d="m656.97375 381.80054l0 0c0 -113.6315 48.69165 -205.74805 108.75592 -205.74805l0 0c28.843872 0 56.506348 21.676971 76.90204 60.262207c20.39569 38.585236 31.85382 90.91806 31.85382 145.48584l0 0c0 113.6315 -48.69165 205.74805 -108.75586 205.74805l0 0c-60.06427 0 -108.75592 -92.11655 -108.75592 -205.74805z" fill-rule="evenodd"/><path stroke="#a64d79" stroke-width="16.0" stroke-linejoin="round" stroke-linecap="butt" d="m656.97375 381.80054l0 0c0 -113.6315 48.69165 -205.74805 108.75592 -205.74805l0 0c28.843872 0 56.506348 21.676971 76.90204 60.262207c20.39569 38.585236 31.85382 90.91806 31.85382 145.48584l0 0c0 113.6315 -48.69165 205.74805 -108.75586 205.74805l0 0c-60.06427 0 -108.75592 -92.11655 -108.75592 -205.74805z" fill-rule="evenodd"/></g></svg>