<svg version="1.1" viewBox="0.0 0.0 960.0 720.0" fill="none" stroke="none" stroke-linecap="square" stroke-miterlimit="10" xmlns:xlink="http://www.w3.org/1999/xlink" xmlns="http://www.w3.org/2000/svg"><clipPath id="p.0"><path d="m0 0l960.0 0l0 720.0l-960.0 0l0 -720.0z" clip-rule="nonzero"/></clipPath><g clip-path="url(#p.0)"><path fill="#000000" fill-opacity="0.0" d="m0 0l960.0 0l0 720.0l-960.0 0z" fill-rule="evenodd"/><path fill="#000000" fill-opacity="0.0" d="m365.4672 381.80054l0 0c0 -113.6315 48.69168 -205.74805 108.75589 -205.74805l0 0c28.843872 0 56.506348 21.676971 76.90204 60.262207c20.39569 38.585236 31.853882 90.91806 31.853882 145.48584l0 0c0 113.6315 -48.69165 205.74805 -108.75592 205.74805l0 0c-60.06421 0 -108.75589 -92.11655 -108.75589 -205.74805z" fill-rule="evenodd"/><path stroke="#a64d79" stroke-width="16.0" stroke-linejoin="round" stroke-linecap="butt" d="m365.4672 381.80054l0 0c0 -113.6315 48.69168 -205.74805 108.75589 -205.74805l0 0c28.843872 0 56.506348 21.676971 76.90204 60.262207c20.39569 38.585236 31.853882 90.91806 31.853882 145.48584l0 0c0 113.6315 -48.69165 205.74805 -108.75592 205.74805l0 0c-60.06421 0 -108.75589 -92.11655 -108.75589 -205.74805z" fill-rule="evenodd"/><path fill="#000000" fill-opacity="0.0" d="m397.32104 236.3147l153.79529 0" fill-rule="evenodd"/><path stroke="#a64d79" stroke-width="16.0" stroke-linejoin="round" stroke-linecap="butt" d="m397.32104 236.3147l153.79529 0" fill-rule="evenodd"/><path fill="#000000" fill-opacity="0.0" d="m365.4672 381.80054l217.51181 0" fill-rule="evenodd"/><path stroke="#a64d79" stroke-width="16.0" stroke-linejoin="round" stroke-linecap="butt" d="m365.4672 381.80054l217.51181 0" fill-rule="evenodd"/><path fill="#000000" fill-opacity="0.0" d="m397.32104 527.2864l153.79529 0" fill-rule="evenodd"/><path stroke="#a64d79" stroke-width="16.0" stroke-linejoin="round" stroke-linecap="butt" d="m397.32104 527.2864l153.79529 0" fill-rule="evenodd"/><path fill="#000000" fill-opacity="0.0" d="m381.38846 464.04724l188.53543 0" fill-rule="evenodd"/><path stroke="#a64d79" stroke-width="16.0" stroke-linejoin="round" stroke-linecap="butt" d="m381.38846 464.04724l188.53543 0" fill-rule="evenodd"/><path fill="#000000" fill-opacity="0.0" d="m372.68765 314.6824l201.5748 -2.8976135" fill-rule="evenodd"/><path stroke="#a64d79" stroke-width="16.0" stroke-linejoin="round" stroke-linecap="butt" d="m372.68765 314.6824l201.5748 -2.8976135" fill-rule="evenodd"/></g></svg>