<svg version="1.1" viewBox="0.0 0.0 960.0 720.0" fill="none" stroke="none" stroke-linecap="square" stroke-miterlimit="10" xmlns:xlink="http://www.w3.org/1999/xlink" xmlns="http://www.w3.org/2000/svg"><clipPath id="p.0"><path d="m0 0l960.0 0l0 720.0l-960.0 0l0 -720.0z" clip-rule="nonzero"/></clipPath><g clip-path="url(#p.0)"><path fill="#000000" fill-opacity="0.0" d="m0 0l960.0 0l0 720.0l-960.0 0z" fill-rule="evenodd"/><path fill="#000000" fill-opacity="0.0" d="m667.09973 381.80054l0 0c0 -113.6315 48.69171 -205.74805 108.75592 -205.74805l0 0c28.843872 0 56.506348 21.676971 76.90204 60.262207c20.39569 38.585236 31.853882 90.91806 31.853882 145.48584l0 0c0 113.6315 -48.69171 205.74805 -108.75592 205.74805l0 0c-60.06421 0 -108.75592 -92.11655 -108.75592 -205.74805z" fill-rule="evenodd"/><path stroke="#a64d79" stroke-width="16.0" stroke-linejoin="round" stroke-linecap="butt" d="m667.09973 381.80054l0 0c0 -113.6315 48.69171 -205.74805 108.75592 -205.74805l0 0c28.843872 0 56.506348 21.676971 76.90204 60.262207c20.39569 38.585236 31.853882 90.91806 31.853882 145.48584l0 0c0 113.6315 -48.69171 205.74805 -108.75592 205.74805l0 0c-60.06421 0 -108.75592 -92.11655 -108.75592 -205.74805z" fill-rule="evenodd"/><path fill="#000000" fill-opacity="0.0" d="m698.9536 236.3147l153.79529 0" fill-rule="evenodd"/><path stroke="#a64d79" stroke-width="16.0" stroke-linejoin="round" stroke-linecap="butt" d="m698.9536 236.3147l153.79529 0" fill-rule="evenodd"/><path fill="#000000" fill-opacity="0.0" d="m667.09973 381.80054l217.51184 0" fill-rule="evenodd"/><path stroke="#a64d79" stroke-width="16.0" stroke-linejoin="round" stroke-linecap="butt" d="m667.09973 381.80054l217.51184 0" fill-rule="evenodd"/><path fill="#000000" fill-opacity="0.0" d="m698.9536 527.2864l153.79529 0" fill-rule="evenodd"/><path stroke="#a64d79" stroke-width="16.0" stroke-linejoin="round" stroke-linecap="butt" d="m698.9536 527.2864l153.79529 0" fill-rule="evenodd"/><path fill="#000000" fill-opacity="0.0" d="m683.021 464.04724l188.53546 0" fill-rule="evenodd"/><path stroke="#a64d79" stroke-width="16.0" stroke-linejoin="round" stroke-linecap="butt" d="m683.021 464.04724l188.53546 0" fill-rule="evenodd"/><path fill="#000000" fill-opacity="0.0" d="m674.3202 314.6824l201.57483 -2.8976135" fill-rule="evenodd"/><path stroke="#a64d79" stroke-width="16.0" stroke-linejoin="round" stroke-linecap="butt" d="m674.3202 314.6824l201.57483 -2.8976135" fill-rule="evenodd"/><path fill="#000000" fill-opacity="0.0" d="m95.7874 381.80054l0 0c0 -113.6315 48.69168 -205.74805 108.755905 -205.74805l0 0c28.843857 0 56.506348 21.676971 76.90204 60.262207c20.39569 38.585236 31.853882 90.91806 31.853882 145.48584l0 0c0 113.6315 -48.69168 205.74805 -108.75592 205.74805l0 0c-60.064224 0 -108.755905 -92.11655 -108.755905 -205.74805z" fill-rule="evenodd"/><path stroke="#a64d79" stroke-width="16.0" stroke-linejoin="round" stroke-linecap="butt" d="m95.7874 381.80054l0 0c0 -113.6315 48.69168 -205.74805 108.755905 -205.74805l0 0c28.843857 0 56.506348 21.676971 76.90204 60.262207c20.39569 38.585236 31.853882 90.91806 31.853882 145.48584l0 0c0 113.6315 -48.69168 205.74805 -108.75592 205.74805l0 0c-60.064224 0 -108.755905 -92.11655 -108.755905 -205.74805z" fill-rule="evenodd"/><path fill="#000000" fill-opacity="0.0" d="m127.641266 236.3147l153.79529 0" fill-rule="evenodd"/><path stroke="#a64d79" stroke-width="16.0" stroke-linejoin="round" stroke-linecap="butt" d="m127.641266 236.3147l153.79529 0" fill-rule="evenodd"/><path fill="#000000" fill-opacity="0.0" d="m95.7874 381.80054l217.51183 0" fill-rule="evenodd"/><path stroke="#a64d79" stroke-width="16.0" stroke-linejoin="round" stroke-linecap="butt" d="m95.7874 381.80054l217.51183 0" fill-rule="evenodd"/><path fill="#000000" fill-opacity="0.0" d="m127.641266 527.2864l153.79529 0" fill-rule="evenodd"/><path stroke="#a64d79" stroke-width="16.0" stroke-linejoin="round" stroke-linecap="butt" d="m127.641266 527.2864l153.79529 0" fill-rule="evenodd"/><path fill="#000000" fill-opacity="0.0" d="m111.708664 464.04724l188.53542 0" fill-rule="evenodd"/><path stroke="#a64d79" stroke-width="16.0" stroke-linejoin="round" stroke-linecap="butt" d="m111.708664 464.04724l188.53542 0" fill-rule="evenodd"/><path fill="#000000" fill-opacity="0.0" d="m103.00787 314.6824l201.5748 -2.8976135" fill-rule="evenodd"/><path stroke="#a64d79" stroke-width="16.0" stroke-linejoin="round" stroke-linecap="butt" d="m103.00787 314.6824l201.5748 -2.8976135" fill-rule="evenodd"/><path fill="#000000" fill-opacity="0.0" d="m389.4042 381.80054l0 0c0 -113.6315 48.69168 -205.74805 108.75589 -205.74805l0 0c28.843872 0 56.506348 21.676971 76.90204 60.262207c20.39569 38.585236 31.853882 90.91806 31.853882 145.48584l0 0c0 113.6315 -48.69171 205.74805 -108.75592 205.74805l0 0c-60.06421 0 -108.75589 -92.11655 -108.75589 -205.74805z" fill-rule="evenodd"/><path stroke="#a64d79" stroke-width="16.0" stroke-linejoin="round" stroke-linecap="butt" d="m389.4042 381.80054l0 0c0 -113.6315 48.69168 -205.74805 108.75589 -205.74805l0 0c28.843872 0 56.506348 21.676971 76.90204 60.262207c20.39569 38.585236 31.853882 90.91806 31.853882 145.48584l0 0c0 113.6315 -48.69171 205.74805 -108.75592 205.74805l0 0c-60.06421 0 -108.75589 -92.11655 -108.75589 -205.74805z" fill-rule="evenodd"/><path fill="#000000" fill-opacity="0.0" d="m421.25806 236.3147l153.79529 0" fill-rule="evenodd"/><path stroke="#a64d79" stroke-width="16.0" stroke-linejoin="round" stroke-linecap="butt" d="m421.25806 236.3147l153.79529 0" fill-rule="evenodd"/><path fill="#000000" fill-opacity="0.0" d="m389.4042 381.80054l217.51181 0" fill-rule="evenodd"/><path stroke="#a64d79" stroke-width="16.0" stroke-linejoin="round" stroke-linecap="butt" d="m389.4042 381.80054l217.51181 0" fill-rule="evenodd"/><path fill="#000000" fill-opacity="0.0" d="m421.25806 527.2864l153.79529 0" fill-rule="evenodd"/><path stroke="#a64d79" stroke-width="16.0" stroke-linejoin="round" stroke-linecap="butt" d="m421.25806 527.2864l153.79529 0" fill-rule="evenodd"/><path fill="#000000" fill-opacity="0.0" d="m405.32547 464.04724l188.53543 0" fill-rule="evenodd"/><path stroke="#a64d79" stroke-width="16.0" stroke-linejoin="round" stroke-linecap="butt" d="m405.32547 464.04724l188.53543 0" fill-rule="evenodd"/><path fill="#000000" fill-opacity="0.0" d="m396.62466 314.6824l201.5748 -2.8976135" fill-rule="evenodd"/><path stroke="#a64d79" stroke-width="16.0" stroke-linejoin="round" stroke-linecap="butt" d="m396.62466 314.6824l201.5748 -2.8976135" fill-rule="evenodd"/></g></svg>