<svg version="1.1" viewBox="0.0 0.0 960.0 720.0" fill="none" stroke="none" stroke-linecap="square" stroke-miterlimit="10" xmlns:xlink="http://www.w3.org/1999/xlink" xmlns="http://www.w3.org/2000/svg"><clipPath id="p.0"><path d="m0 0l960.0 0l0 720.0l-960.0 0l0 -720.0z" clip-rule="nonzero"/></clipPath><g clip-path="url(#p.0)"><path fill="#000000" fill-opacity="0.0" d="m0 0l960.0 0l0 720.0l-960.0 0z" fill-rule="evenodd"/><path fill="#000000" fill-opacity="0.0" d="m728.6441 154.25198l50.67047 115.828l-20.901001 13.659302l63.82312 99.25394l-20.901001 16.574066l78.90411 166.17886l-133.8125 -127.35364l25.519958 -17.678986l-83.14203 -81.57492l29.792542 -25.20401l-87.78412 -85.57556z" fill-rule="evenodd"/><path stroke="#ff0000" stroke-width="16.0" stroke-linejoin="round" stroke-linecap="butt" d="m728.6441 154.25198l50.67047 115.828l-20.901001 13.659302l63.82312 99.25394l-20.901001 16.574066l78.90411 166.17886l-133.8125 -127.35364l25.519958 -17.678986l-83.14203 -81.57492l29.792542 -25.20401l-87.78412 -85.57556z" fill-rule="evenodd"/><path fill="#000000" fill-opacity="0.0" d="m630.81366 228.35904l130.51965 -2.1417236" fill-rule="evenodd"/><path stroke="#ff0000" stroke-width="16.0" stroke-linejoin="round" stroke-linecap="butt" d="m630.81366 228.35904l130.51965 -2.1417236" fill-rule="evenodd"/><path fill="#000000" fill-opacity="0.0" d="m688.80524 339.1386l105.95276 -1.1968384" fill-rule="evenodd"/><path stroke="#ff0000" stroke-width="16.0" stroke-linejoin="round" stroke-linecap="butt" d="m688.80524 339.1386l105.95276 -1.1968384" fill-rule="evenodd"/><path fill="#000000" fill-opacity="0.0" d="m746.9239 438.04068l75.30707 -0.09448242" fill-rule="evenodd"/><path stroke="#ff0000" stroke-width="16.0" stroke-linejoin="round" stroke-linecap="butt" d="m746.9239 438.04068l75.30707 -0.09448242" fill-rule="evenodd"/><path fill="#000000" fill-opacity="0.0" d="m735.213 381.38693l87.02368 1.6062927" fill-rule="evenodd"/><path stroke="#ff0000" stroke-width="16.0" stroke-linejoin="round" stroke-linecap="butt" d="m735.213 381.38693l87.02368 1.6062927" fill-rule="evenodd"/><path fill="#000000" fill-opacity="0.0" d="m677.23584 275.5288l102.078735 -5.448822" fill-rule="evenodd"/><path stroke="#ff0000" stroke-width="16.0" stroke-linejoin="round" stroke-linecap="butt" d="m677.23584 275.5288l102.078735 -5.448822" fill-rule="evenodd"/><path fill="#000000" fill-opacity="0.0" d="m158.78323 176.44359l50.670456 115.82799l-20.900986 13.659332l63.823074 99.25391l-20.900986 16.574066l78.90411 166.17886l-133.81252 -127.35361l25.519989 -17.679016l-83.142044 -81.57492l29.792572 -25.20401l-87.78415 -85.57555z" fill-rule="evenodd"/><path stroke="#ff0000" stroke-width="16.0" stroke-linejoin="round" stroke-linecap="butt" d="m158.78323 176.44359l50.670456 115.82799l-20.900986 13.659332l63.823074 99.25391l-20.900986 16.574066l78.90411 166.17886l-133.81252 -127.35361l25.519989 -17.679016l-83.142044 -81.57492l29.792572 -25.20401l-87.78415 -85.57555z" fill-rule="evenodd"/><path fill="#000000" fill-opacity="0.0" d="m60.952755 250.55064l130.51968 -2.141739" fill-rule="evenodd"/><path stroke="#ff0000" stroke-width="16.0" stroke-linejoin="round" stroke-linecap="butt" d="m60.952755 250.55064l130.51968 -2.141739" fill-rule="evenodd"/><path fill="#000000" fill-opacity="0.0" d="m118.944336 361.3302l105.95276 -1.1968384" fill-rule="evenodd"/><path stroke="#ff0000" stroke-width="16.0" stroke-linejoin="round" stroke-linecap="butt" d="m118.944336 361.3302l105.95276 -1.1968384" fill-rule="evenodd"/><path fill="#000000" fill-opacity="0.0" d="m177.06299 460.23227l75.30708 -0.09448242" fill-rule="evenodd"/><path stroke="#ff0000" stroke-width="16.0" stroke-linejoin="round" stroke-linecap="butt" d="m177.06299 460.23227l75.30708 -0.09448242" fill-rule="evenodd"/><path fill="#000000" fill-opacity="0.0" d="m165.35216 403.57852l87.02362 1.6062927" fill-rule="evenodd"/><path stroke="#ff0000" stroke-width="16.0" stroke-linejoin="round" stroke-linecap="butt" d="m165.35216 403.57852l87.02362 1.6062927" fill-rule="evenodd"/><path fill="#000000" fill-opacity="0.0" d="m107.37495 297.7204l102.07874 -5.448822" fill-rule="evenodd"/><path stroke="#ff0000" stroke-width="16.0" stroke-linejoin="round" stroke-linecap="butt" d="m107.37495 297.7204l102.07874 -5.448822" fill-rule="evenodd"/><path fill="#000000" fill-opacity="0.0" d="m443.71368 176.44096l50.67044 115.82799l-20.90097 13.659332l63.82306 99.25391l-20.901001 16.574066l78.90411 166.17886l-133.8125 -127.35361l25.519989 -17.679016l-83.14203 -81.57492l29.792572 -25.20401l-87.78415 -85.57555z" fill-rule="evenodd"/><path stroke="#ff0000" stroke-width="16.0" stroke-linejoin="round" stroke-linecap="butt" d="m443.71368 176.44096l50.67044 115.82799l-20.90097 13.659332l63.82306 99.25391l-20.901001 16.574066l78.90411 166.17886l-133.8125 -127.35361l25.519989 -17.679016l-83.14203 -81.57492l29.792572 -25.20401l-87.78415 -85.57555z" fill-rule="evenodd"/><path fill="#000000" fill-opacity="0.0" d="m345.8832 250.54802l130.51968 -2.141739" fill-rule="evenodd"/><path stroke="#ff0000" stroke-width="16.0" stroke-linejoin="round" stroke-linecap="butt" d="m345.8832 250.54802l130.51968 -2.141739" fill-rule="evenodd"/><path fill="#000000" fill-opacity="0.0" d="m403.8748 361.32758l105.95276 -1.1968384" fill-rule="evenodd"/><path stroke="#ff0000" stroke-width="16.0" stroke-linejoin="round" stroke-linecap="butt" d="m403.8748 361.32758l105.95276 -1.1968384" fill-rule="evenodd"/><path fill="#000000" fill-opacity="0.0" d="m461.99344 460.22964l75.3071 -0.09448242" fill-rule="evenodd"/><path stroke="#ff0000" stroke-width="16.0" stroke-linejoin="round" stroke-linecap="butt" d="m461.99344 460.22964l75.3071 -0.09448242" fill-rule="evenodd"/><path fill="#000000" fill-opacity="0.0" d="m450.2826 403.5759l87.02362 1.6062927" fill-rule="evenodd"/><path stroke="#ff0000" stroke-width="16.0" stroke-linejoin="round" stroke-linecap="butt" d="m450.2826 403.5759l87.02362 1.6062927" fill-rule="evenodd"/><path fill="#000000" fill-opacity="0.0" d="m392.3054 297.71777l102.078735 -5.448822" fill-rule="evenodd"/><path stroke="#ff0000" stroke-width="16.0" stroke-linejoin="round" stroke-linecap="butt" d="m392.3054 297.71777l102.078735 -5.448822" fill-rule="evenodd"/></g></svg>