<svg version="1.1" viewBox="0.0 0.0 960.0 720.0" fill="none" stroke="none" stroke-linecap="square" stroke-miterlimit="10" xmlns:xlink="http://www.w3.org/1999/xlink" xmlns="http://www.w3.org/2000/svg"><clipPath id="p.0"><path d="m0 0l960.0 0l0 720.0l-960.0 0l0 -720.0z" clip-rule="nonzero"/></clipPath><g clip-path="url(#p.0)"><path fill="#000000" fill-opacity="0.0" d="m0 0l960.0 0l0 720.0l-960.0 0z" fill-rule="evenodd"/><path fill="#000000" fill-opacity="0.0" d="m232.69531 154.25461l50.67044 115.828l-20.90097 13.659302l63.82306 99.25394l-20.90097 16.574066l78.90411 166.17886l-133.81252 -127.35364l25.519974 -17.678986l-83.14203 -81.57492l29.792557 -25.20401l-87.78415 -85.57556z" fill-rule="evenodd"/><path stroke="#a64d79" stroke-width="16.0" stroke-linejoin="round" stroke-linecap="butt" d="m232.69531 154.25461l50.67044 115.828l-20.90097 13.659302l63.82306 99.25394l-20.90097 16.574066l78.90411 166.17886l-133.81252 -127.35364l25.519974 -17.678986l-83.14203 -81.57492l29.792557 -25.20401l-87.78415 -85.57556z" fill-rule="evenodd"/><path fill="#000000" fill-opacity="0.0" d="m718.5457 154.2533l50.67047 115.828l-20.901001 13.659302l63.82306 99.25394l-20.901001 16.574066l78.90411 166.1789l-133.8125 -127.35367l25.52002 -17.678986l-83.14209 -81.57492l29.792603 -25.20401l-87.78418 -85.57556z" fill-rule="evenodd"/><path stroke="#a64d79" stroke-width="16.0" stroke-linejoin="round" stroke-linecap="butt" d="m718.5457 154.2533l50.67047 115.828l-20.901001 13.659302l63.82306 99.25394l-20.901001 16.574066l78.90411 166.1789l-133.8125 -127.35367l25.52002 -17.678986l-83.14209 -81.57492l29.792603 -25.20401l-87.78418 -85.57556z" fill-rule="evenodd"/><path fill="#000000" fill-opacity="0.0" d="m469.1205 129.69556l50.67044 115.82799l-20.90097 13.659317l63.82303 99.25394l-20.90094 16.574066l78.90411 166.1789l-133.81253 -127.35367l25.519989 -17.679016l-83.14203 -81.57489l29.792542 -25.20401l-87.78412 -85.57556z" fill-rule="evenodd"/><path stroke="#a64d79" stroke-width="16.0" stroke-linejoin="round" stroke-linecap="butt" d="m469.1205 129.69556l50.67044 115.82799l-20.90097 13.659317l63.82303 99.25394l-20.90094 16.574066l78.90411 166.1789l-133.81253 -127.35367l25.519989 -17.679016l-83.14203 -81.57489l29.792542 -25.20401l-87.78412 -85.57556z" fill-rule="evenodd"/></g></svg>