<svg version="1.1" viewBox="0.0 0.0 960.0 720.0" fill="none" stroke="none" stroke-linecap="square" stroke-miterlimit="10" xmlns:xlink="http://www.w3.org/1999/xlink" xmlns="http://www.w3.org/2000/svg"><clipPath id="p.0"><path d="m0 0l960.0 0l0 720.0l-960.0 0l0 -720.0z" clip-rule="nonzero"/></clipPath><g clip-path="url(#p.0)"><path fill="#000000" fill-opacity="0.0" d="m0 0l960.0 0l0 720.0l-960.0 0z" fill-rule="evenodd"/><path fill="#000000" fill-opacity="0.0" d="m731.54834 176.44359l50.67047 115.82799l-20.901001 13.659332l63.82306 99.25391l-20.901001 16.574066l78.90411 166.17886l-133.8125 -127.35361l25.52002 -17.679016l-83.14209 -81.57492l29.792603 -25.20401l-87.78418 -85.57555z" fill-rule="evenodd"/><path stroke="#a64d79" stroke-width="16.0" stroke-linejoin="round" stroke-linecap="butt" d="m731.54834 176.44359l50.67047 115.82799l-20.901001 13.659332l63.82306 99.25391l-20.901001 16.574066l78.90411 166.17886l-133.8125 -127.35361l25.52002 -17.679016l-83.14209 -81.57492l29.792603 -25.20401l-87.78418 -85.57555z" fill-rule="evenodd"/><path fill="#000000" fill-opacity="0.0" d="m633.71783 250.55064l130.51971 -2.141739" fill-rule="evenodd"/><path stroke="#a64d79" stroke-width="16.0" stroke-linejoin="round" stroke-linecap="butt" d="m633.71783 250.55064l130.51971 -2.141739" fill-rule="evenodd"/><path fill="#000000" fill-opacity="0.0" d="m691.7094 361.3302l105.95276 -1.1968384" fill-rule="evenodd"/><path stroke="#a64d79" stroke-width="16.0" stroke-linejoin="round" stroke-linecap="butt" d="m691.7094 361.3302l105.95276 -1.1968384" fill-rule="evenodd"/><path fill="#000000" fill-opacity="0.0" d="m749.82806 460.23227l75.30713 -0.09448242" fill-rule="evenodd"/><path stroke="#a64d79" stroke-width="16.0" stroke-linejoin="round" stroke-linecap="butt" d="m749.82806 460.23227l75.30713 -0.09448242" fill-rule="evenodd"/><path fill="#000000" fill-opacity="0.0" d="m738.11725 403.57852l87.02362 1.6062927" fill-rule="evenodd"/><path stroke="#a64d79" stroke-width="16.0" stroke-linejoin="round" stroke-linecap="butt" d="m738.11725 403.57852l87.02362 1.6062927" fill-rule="evenodd"/><path fill="#000000" fill-opacity="0.0" d="m680.14 297.7204l102.0788 -5.448822" fill-rule="evenodd"/><path stroke="#a64d79" stroke-width="16.0" stroke-linejoin="round" stroke-linecap="butt" d="m680.14 297.7204l102.0788 -5.448822" fill-rule="evenodd"/><path fill="#000000" fill-opacity="0.0" d="m160.236 176.44228l50.670456 115.82799l-20.900986 13.659332l63.82306 99.25391l-20.900986 16.574066l78.90413 166.1789l-133.81252 -127.35364l25.519989 -17.679016l-83.14205 -81.57492l29.792564 -25.20401l-87.78414 -85.57555z" fill-rule="evenodd"/><path stroke="#a64d79" stroke-width="16.0" stroke-linejoin="round" stroke-linecap="butt" d="m160.236 176.44228l50.670456 115.82799l-20.900986 13.659332l63.82306 99.25391l-20.900986 16.574066l78.90413 166.1789l-133.81252 -127.35364l25.519989 -17.679016l-83.14205 -81.57492l29.792564 -25.20401l-87.78414 -85.57555z" fill-rule="evenodd"/><path fill="#000000" fill-opacity="0.0" d="m62.40551 250.54933l130.51968 -2.141739" fill-rule="evenodd"/><path stroke="#a64d79" stroke-width="16.0" stroke-linejoin="round" stroke-linecap="butt" d="m62.40551 250.54933l130.51968 -2.141739" fill-rule="evenodd"/><path fill="#000000" fill-opacity="0.0" d="m120.39709 361.3289l105.95275 -1.1968384" fill-rule="evenodd"/><path stroke="#a64d79" stroke-width="16.0" stroke-linejoin="round" stroke-linecap="butt" d="m120.39709 361.3289l105.95275 -1.1968384" fill-rule="evenodd"/><path fill="#000000" fill-opacity="0.0" d="m178.51575 460.23096l75.30708 -0.09448242" fill-rule="evenodd"/><path stroke="#a64d79" stroke-width="16.0" stroke-linejoin="round" stroke-linecap="butt" d="m178.51575 460.23096l75.30708 -0.09448242" fill-rule="evenodd"/><path fill="#000000" fill-opacity="0.0" d="m166.8049 403.5772l87.02362 1.6062927" fill-rule="evenodd"/><path stroke="#a64d79" stroke-width="16.0" stroke-linejoin="round" stroke-linecap="butt" d="m166.8049 403.5772l87.02362 1.6062927" fill-rule="evenodd"/><path fill="#000000" fill-opacity="0.0" d="m108.827705 297.7191l102.07874 -5.448822" fill-rule="evenodd"/><path stroke="#a64d79" stroke-width="16.0" stroke-linejoin="round" stroke-linecap="butt" d="m108.827705 297.7191l102.07874 -5.448822" fill-rule="evenodd"/></g></svg>