<svg version="1.1" viewBox="0.0 0.0 960.0 720.0" fill="none" stroke="none" stroke-linecap="square" stroke-miterlimit="10" xmlns:xlink="http://www.w3.org/1999/xlink" xmlns="http://www.w3.org/2000/svg"><clipPath id="p.0"><path d="m0 0l960.0 0l0 720.0l-960.0 0l0 -720.0z" clip-rule="nonzero"/></clipPath><g clip-path="url(#p.0)"><path fill="#000000" fill-opacity="0.0" d="m0 0l960.0 0l0 720.0l-960.0 0z" fill-rule="evenodd"/><path fill="#000000" fill-opacity="0.0" d="m383.22308 359.9987l108.76117 -205.74147l108.76117 205.74147l-108.76117 205.74149z" fill-rule="evenodd"/><path stroke="#ff0000" stroke-width="16.0" stroke-linejoin="round" stroke-linecap="butt" d="m383.22308 359.9987l108.76117 -205.74147l108.76117 205.74147l-108.76117 205.74149z" fill-rule="evenodd"/><path fill="#000000" fill-opacity="0.0" d="m403.14172 311.78217l171.1181 0" fill-rule="evenodd"/><path stroke="#ff0000" stroke-width="16.0" stroke-linejoin="round" stroke-linecap="butt" d="m403.14172 311.78217l171.1181 0" fill-rule="evenodd"/><path fill="#000000" fill-opacity="0.0" d="m383.22308 359.9987l217.51184 0" fill-rule="evenodd"/><path stroke="#ff0000" stroke-width="16.0" stroke-linejoin="round" stroke-linecap="butt" d="m383.22308 359.9987l217.51184 0" fill-rule="evenodd"/><path fill="#000000" fill-opacity="0.0" d="m411.16534 413.51706l161.63782 2.6771545" fill-rule="evenodd"/><path stroke="#ff0000" stroke-width="16.0" stroke-linejoin="round" stroke-linecap="butt" d="m411.16534 413.51706l161.63782 2.6771545" fill-rule="evenodd"/><path fill="#000000" fill-opacity="0.0" d="m433.74014 472.48294l115.874054 -2.6456604" fill-rule="evenodd"/><path stroke="#ff0000" stroke-width="16.0" stroke-linejoin="round" stroke-linecap="butt" d="m433.74014 472.48294l115.874054 -2.6456604" fill-rule="evenodd"/><path fill="#000000" fill-opacity="0.0" d="m434.04724 270.958l115.87402 -2.6456604" fill-rule="evenodd"/><path stroke="#ff0000" stroke-width="16.0" stroke-linejoin="round" stroke-linecap="butt" d="m434.04724 270.958l115.87402 -2.6456604" fill-rule="evenodd"/></g></svg>