<svg version="1.1" viewBox="0.0 0.0 960.0 720.0" fill="none" stroke="none" stroke-linecap="square" stroke-miterlimit="10" xmlns:xlink="http://www.w3.org/1999/xlink" xmlns="http://www.w3.org/2000/svg"><clipPath id="p.0"><path d="m0 0l960.0 0l0 720.0l-960.0 0l0 -720.0z" clip-rule="nonzero"/></clipPath><g clip-path="url(#p.0)"><path fill="#000000" fill-opacity="0.0" d="m0 0l960.0 0l0 720.0l-960.0 0z" fill-rule="evenodd"/><path fill="#000000" fill-opacity="0.0" d="m146.84776 368.69946l108.761154 -205.74146l108.76117 205.74146l-108.76117 205.74146z" fill-rule="evenodd"/><path stroke="#ff0000" stroke-width="16.0" stroke-linejoin="round" stroke-linecap="butt" d="m146.84776 368.69946l108.761154 -205.74146l108.76117 205.74146l-108.76117 205.74146z" fill-rule="evenodd"/><path fill="#000000" fill-opacity="0.0" d="m166.7664 320.48294l171.11812 0" fill-rule="evenodd"/><path stroke="#ff0000" stroke-width="16.0" stroke-linejoin="round" stroke-linecap="butt" d="m166.7664 320.48294l171.11812 0" fill-rule="evenodd"/><path fill="#000000" fill-opacity="0.0" d="m146.84776 368.69946l217.51183 0" fill-rule="evenodd"/><path stroke="#ff0000" stroke-width="16.0" stroke-linejoin="round" stroke-linecap="butt" d="m146.84776 368.69946l217.51183 0" fill-rule="evenodd"/><path fill="#000000" fill-opacity="0.0" d="m174.79002 422.21783l161.6378 2.677185" fill-rule="evenodd"/><path stroke="#ff0000" stroke-width="16.0" stroke-linejoin="round" stroke-linecap="butt" d="m174.79002 422.21783l161.6378 2.677185" fill-rule="evenodd"/><path fill="#000000" fill-opacity="0.0" d="m197.36482 481.18372l115.87401 -2.6456604" fill-rule="evenodd"/><path stroke="#ff0000" stroke-width="16.0" stroke-linejoin="round" stroke-linecap="butt" d="m197.36482 481.18372l115.87401 -2.6456604" fill-rule="evenodd"/><path fill="#000000" fill-opacity="0.0" d="m197.67192 279.65878l115.87401 -2.6456604" fill-rule="evenodd"/><path stroke="#ff0000" stroke-width="16.0" stroke-linejoin="round" stroke-linecap="butt" d="m197.67192 279.65878l115.87401 -2.6456604" fill-rule="evenodd"/><path fill="#000000" fill-opacity="0.0" d="m651.5486 368.69946l108.76111 -205.74146l108.76117 205.74146l-108.76117 205.74146z" fill-rule="evenodd"/><path stroke="#ff0000" stroke-width="16.0" stroke-linejoin="round" stroke-linecap="butt" d="m651.5486 368.69946l108.76111 -205.74146l108.76117 205.74146l-108.76117 205.74146z" fill-rule="evenodd"/><path fill="#000000" fill-opacity="0.0" d="m671.46716 320.48294l171.11816 0" fill-rule="evenodd"/><path stroke="#ff0000" stroke-width="16.0" stroke-linejoin="round" stroke-linecap="butt" d="m671.46716 320.48294l171.11816 0" fill-rule="evenodd"/><path fill="#000000" fill-opacity="0.0" d="m651.5486 368.69946l217.51178 0" fill-rule="evenodd"/><path stroke="#ff0000" stroke-width="16.0" stroke-linejoin="round" stroke-linecap="butt" d="m651.5486 368.69946l217.51178 0" fill-rule="evenodd"/><path fill="#000000" fill-opacity="0.0" d="m679.4908 422.21783l161.63782 2.677185" fill-rule="evenodd"/><path stroke="#ff0000" stroke-width="16.0" stroke-linejoin="round" stroke-linecap="butt" d="m679.4908 422.21783l161.63782 2.677185" fill-rule="evenodd"/><path fill="#000000" fill-opacity="0.0" d="m702.0656 481.18372l115.87402 -2.6456604" fill-rule="evenodd"/><path stroke="#ff0000" stroke-width="16.0" stroke-linejoin="round" stroke-linecap="butt" d="m702.0656 481.18372l115.87402 -2.6456604" fill-rule="evenodd"/><path fill="#000000" fill-opacity="0.0" d="m702.3727 279.65878l115.87402 -2.6456604" fill-rule="evenodd"/><path stroke="#ff0000" stroke-width="16.0" stroke-linejoin="round" stroke-linecap="butt" d="m702.3727 279.65878l115.87402 -2.6456604" fill-rule="evenodd"/></g></svg>