<svg version="1.1" viewBox="0.0 0.0 960.0 720.0" fill="none" stroke="none" stroke-linecap="square" stroke-miterlimit="10" xmlns:xlink="http://www.w3.org/1999/xlink" xmlns="http://www.w3.org/2000/svg"><clipPath id="p.0"><path d="m0 0l960.0 0l0 720.0l-960.0 0l0 -720.0z" clip-rule="nonzero"/></clipPath><g clip-path="url(#p.0)"><path fill="#000000" fill-opacity="0.0" d="m0 0l960.0 0l0 720.0l-960.0 0z" fill-rule="evenodd"/><path fill="#000000" fill-opacity="0.0" d="m673.0932 396.98032l108.76111 -205.74147l108.76117 205.74147l-108.76117 205.74149z" fill-rule="evenodd"/><path stroke="#6aa84f" stroke-width="16.0" stroke-linejoin="round" stroke-linecap="butt" d="m673.0932 396.98032l108.76111 -205.74147l108.76117 205.74147l-108.76117 205.74149z" fill-rule="evenodd"/><path fill="#000000" fill-opacity="0.0" d="m730.3753 280.55774l102.96063 1.448822" fill-rule="evenodd"/><path stroke="#6aa84f" stroke-width="16.0" stroke-linejoin="round" stroke-linecap="butt" d="m730.3753 280.55774l102.96063 1.448822" fill-rule="evenodd"/><path fill="#000000" fill-opacity="0.0" d="m730.3753 501.02756l102.96063 1.448822" fill-rule="evenodd"/><path stroke="#6aa84f" stroke-width="16.0" stroke-linejoin="round" stroke-linecap="butt" d="m730.3753 501.02756l102.96063 1.448822" fill-rule="evenodd"/><path fill="#000000" fill-opacity="0.0" d="m681.1667 398.49213l209.44879 -1.5118103" fill-rule="evenodd"/><path stroke="#6aa84f" stroke-width="16.0" stroke-linejoin="round" stroke-linecap="butt" d="m681.1667 398.49213l209.44879 -1.5118103" fill-rule="evenodd"/><path fill="#000000" fill-opacity="0.0" d="m705.86615 338.76904l155.62201 4.1574707" fill-rule="evenodd"/><path stroke="#6aa84f" stroke-width="16.0" stroke-linejoin="round" stroke-linecap="butt" d="m705.86615 338.76904l155.62201 4.1574707" fill-rule="evenodd"/><path fill="#000000" fill-opacity="0.0" d="m705.86615 449.03543l155.62201 1.1968384" fill-rule="evenodd"/><path stroke="#6aa84f" stroke-width="16.0" stroke-linejoin="round" stroke-linecap="butt" d="m705.86615 449.03543l155.62201 1.1968384" fill-rule="evenodd"/><path fill="#000000" fill-opacity="0.0" d="m71.1273 387.60104l108.76116 -205.74147l108.76114 205.74147l-108.76114 205.74149z" fill-rule="evenodd"/><path stroke="#6aa84f" stroke-width="16.0" stroke-linejoin="round" stroke-linecap="butt" d="m71.1273 387.60104l108.76116 -205.74147l108.76114 205.74147l-108.76114 205.74149z" fill-rule="evenodd"/><path fill="#000000" fill-opacity="0.0" d="m128.40945 271.17847l102.96062 1.448822" fill-rule="evenodd"/><path stroke="#6aa84f" stroke-width="16.0" stroke-linejoin="round" stroke-linecap="butt" d="m128.40945 271.17847l102.96062 1.448822" fill-rule="evenodd"/><path fill="#000000" fill-opacity="0.0" d="m128.40945 491.6483l102.96062 1.448822" fill-rule="evenodd"/><path stroke="#6aa84f" stroke-width="16.0" stroke-linejoin="round" stroke-linecap="butt" d="m128.40945 491.6483l102.96062 1.448822" fill-rule="evenodd"/><path fill="#000000" fill-opacity="0.0" d="m79.20079 389.11285l209.4488 -1.5118103" fill-rule="evenodd"/><path stroke="#6aa84f" stroke-width="16.0" stroke-linejoin="round" stroke-linecap="butt" d="m79.20079 389.11285l209.4488 -1.5118103" fill-rule="evenodd"/><path fill="#000000" fill-opacity="0.0" d="m103.90026 329.38977l155.62204 4.1574707" fill-rule="evenodd"/><path stroke="#6aa84f" stroke-width="16.0" stroke-linejoin="round" stroke-linecap="butt" d="m103.90026 329.38977l155.62204 4.1574707" fill-rule="evenodd"/><path fill="#000000" fill-opacity="0.0" d="m103.90026 439.65616l155.62204 1.1968689" fill-rule="evenodd"/><path stroke="#6aa84f" stroke-width="16.0" stroke-linejoin="round" stroke-linecap="butt" d="m103.90026 439.65616l155.62204 1.1968689" fill-rule="evenodd"/><path fill="#000000" fill-opacity="0.0" d="m376.1483 388.35565l108.76117 -205.74149l108.76114 205.74149l-108.76114 205.74146z" fill-rule="evenodd"/><path stroke="#6aa84f" stroke-width="16.0" stroke-linejoin="round" stroke-linecap="butt" d="m376.1483 388.35565l108.76117 -205.74149l108.76114 205.74149l-108.76114 205.74146z" fill-rule="evenodd"/><path fill="#000000" fill-opacity="0.0" d="m433.43045 271.93307l102.9606 1.448822" fill-rule="evenodd"/><path stroke="#6aa84f" stroke-width="16.0" stroke-linejoin="round" stroke-linecap="butt" d="m433.43045 271.93307l102.9606 1.448822" fill-rule="evenodd"/><path fill="#000000" fill-opacity="0.0" d="m433.43045 492.4029l102.9606 1.448822" fill-rule="evenodd"/><path stroke="#6aa84f" stroke-width="16.0" stroke-linejoin="round" stroke-linecap="butt" d="m433.43045 492.4029l102.9606 1.448822" fill-rule="evenodd"/><path fill="#000000" fill-opacity="0.0" d="m384.22177 389.86746l209.44882 -1.5118103" fill-rule="evenodd"/><path stroke="#6aa84f" stroke-width="16.0" stroke-linejoin="round" stroke-linecap="butt" d="m384.22177 389.86746l209.44882 -1.5118103" fill-rule="evenodd"/><path fill="#000000" fill-opacity="0.0" d="m408.92126 330.14435l155.62207 4.157501" fill-rule="evenodd"/><path stroke="#6aa84f" stroke-width="16.0" stroke-linejoin="round" stroke-linecap="butt" d="m408.92126 330.14435l155.62207 4.157501" fill-rule="evenodd"/><path fill="#000000" fill-opacity="0.0" d="m408.92126 440.41077l155.62207 1.1968384" fill-rule="evenodd"/><path stroke="#6aa84f" stroke-width="16.0" stroke-linejoin="round" stroke-linecap="butt" d="m408.92126 440.41077l155.62207 1.1968384" fill-rule="evenodd"/></g></svg>