<svg version="1.1" viewBox="0.0 0.0 960.0 720.0" fill="none" stroke="none" stroke-linecap="square" stroke-miterlimit="10" xmlns:xlink="http://www.w3.org/1999/xlink" xmlns="http://www.w3.org/2000/svg"><clipPath id="p.0"><path d="m0 0l960.0 0l0 720.0l-960.0 0l0 -720.0z" clip-rule="nonzero"/></clipPath><g clip-path="url(#p.0)"><path fill="#000000" fill-opacity="0.0" d="m0 0l960.0 0l0 720.0l-960.0 0z" fill-rule="evenodd"/><path fill="#ff0000" d="m727.1966 154.25198l50.67047 115.828l-20.901001 13.659302l63.82312 99.25394l-20.901001 16.574066l78.90411 166.17886l-133.8125 -127.35364l25.519958 -17.678986l-83.14203 -81.57492l29.792542 -25.20401l-87.78412 -85.57556z" fill-rule="evenodd"/><path stroke="#ff0000" stroke-width="16.0" stroke-linejoin="round" stroke-linecap="butt" d="m727.1966 154.25198l50.67047 115.828l-20.901001 13.659302l63.82312 99.25394l-20.901001 16.574066l78.90411 166.17886l-133.8125 -127.35364l25.519958 -17.678986l-83.14203 -81.57492l29.792542 -25.20401l-87.78412 -85.57556z" fill-rule="evenodd"/><path fill="#ff0000" d="m203.69267 163.00133l50.67047 115.82799l-20.900986 13.659332l63.82306 99.25391l-20.90097 16.574066l78.90411 166.17886l-133.81252 -127.35361l25.519989 -17.679016l-83.142044 -81.57492l29.792557 -25.20401l-87.78414 -85.57555z" fill-rule="evenodd"/><path stroke="#ff0000" stroke-width="16.0" stroke-linejoin="round" stroke-linecap="butt" d="m203.69267 163.00133l50.67047 115.82799l-20.900986 13.659332l63.82306 99.25391l-20.90097 16.574066l78.90411 166.17886l-133.81252 -127.35361l25.519989 -17.679016l-83.142044 -81.57492l29.792557 -25.20401l-87.78414 -85.57555z" fill-rule="evenodd"/><path fill="#ff0000" d="m459.01288 154.25067l50.67047 115.828l-20.901001 13.659302l63.82306 99.25394l-20.90094 16.574066l78.90411 166.1789l-133.81253 -127.35367l25.519989 -17.678986l-83.14206 -81.57492l29.792572 -25.20401l-87.78415 -85.57556z" fill-rule="evenodd"/><path stroke="#ff0000" stroke-width="16.0" stroke-linejoin="round" stroke-linecap="butt" d="m459.01288 154.25067l50.67047 115.828l-20.901001 13.659302l63.82306 99.25394l-20.90094 16.574066l78.90411 166.1789l-133.81253 -127.35367l25.519989 -17.678986l-83.14206 -81.57492l29.792572 -25.20401l-87.78415 -85.57556z" fill-rule="evenodd"/></g></svg>