<svg version="1.1" viewBox="0.0 0.0 960.0 720.0" fill="none" stroke="none" stroke-linecap="square" stroke-miterlimit="10" xmlns:xlink="http://www.w3.org/1999/xlink" xmlns="http://www.w3.org/2000/svg"><clipPath id="p.0"><path d="m0 0l960.0 0l0 720.0l-960.0 0l0 -720.0z" clip-rule="nonzero"/></clipPath><g clip-path="url(#p.0)"><path fill="#000000" fill-opacity="0.0" d="m0 0l960.0 0l0 720.0l-960.0 0z" fill-rule="evenodd"/><path fill="#000000" fill-opacity="0.0" d="m722.1441 183.74017l50.67047 115.828l-20.901001 13.659302l63.82312 99.25394l-20.901001 16.574066l78.90411 166.1789l-133.8125 -127.35367l25.519958 -17.678986l-83.14203 -81.57492l29.792542 -25.20401l-87.78412 -85.57556z" fill-rule="evenodd"/><path stroke="#93c47d" stroke-width="16.0" stroke-linejoin="round" stroke-linecap="butt" d="m722.1441 183.74017l50.67047 115.828l-20.901001 13.659302l63.82312 99.25394l-20.901001 16.574066l78.90411 166.1789l-133.8125 -127.35367l25.519958 -17.678986l-83.14203 -81.57492l29.792542 -25.20401l-87.78412 -85.57556z" fill-rule="evenodd"/><path fill="#000000" fill-opacity="0.0" d="m624.31366 257.84723l130.51965 -2.1417236" fill-rule="evenodd"/><path stroke="#93c47d" stroke-width="16.0" stroke-linejoin="round" stroke-linecap="butt" d="m624.31366 257.84723l130.51965 -2.1417236" fill-rule="evenodd"/><path fill="#000000" fill-opacity="0.0" d="m682.30524 368.6268l105.95276 -1.1968689" fill-rule="evenodd"/><path stroke="#93c47d" stroke-width="16.0" stroke-linejoin="round" stroke-linecap="butt" d="m682.30524 368.6268l105.95276 -1.1968689" fill-rule="evenodd"/><path fill="#000000" fill-opacity="0.0" d="m740.4239 467.52887l75.30707 -0.09448242" fill-rule="evenodd"/><path stroke="#93c47d" stroke-width="16.0" stroke-linejoin="round" stroke-linecap="butt" d="m740.4239 467.52887l75.30707 -0.09448242" fill-rule="evenodd"/><path fill="#000000" fill-opacity="0.0" d="m728.713 410.87512l87.02368 1.6062927" fill-rule="evenodd"/><path stroke="#93c47d" stroke-width="16.0" stroke-linejoin="round" stroke-linecap="butt" d="m728.713 410.87512l87.02368 1.6062927" fill-rule="evenodd"/><path fill="#000000" fill-opacity="0.0" d="m670.73584 305.017l102.078735 -5.448822" fill-rule="evenodd"/><path stroke="#93c47d" stroke-width="16.0" stroke-linejoin="round" stroke-linecap="butt" d="m670.73584 305.017l102.078735 -5.448822" fill-rule="evenodd"/><path fill="#000000" fill-opacity="0.0" d="m152.28061 183.74017l50.670456 115.828l-20.900986 13.659302l63.823074 99.25394l-20.900986 16.574066l78.90411 166.1789l-133.81252 -127.35367l25.519989 -17.678986l-83.142044 -81.57492l29.792572 -25.20401l-87.78415 -85.57556z" fill-rule="evenodd"/><path stroke="#93c47d" stroke-width="16.0" stroke-linejoin="round" stroke-linecap="butt" d="m152.28061 183.74017l50.670456 115.828l-20.900986 13.659302l63.823074 99.25394l-20.900986 16.574066l78.90411 166.1789l-133.81252 -127.35367l25.519989 -17.678986l-83.142044 -81.57492l29.792572 -25.20401l-87.78415 -85.57556z" fill-rule="evenodd"/><path fill="#000000" fill-opacity="0.0" d="m54.45013 257.84723l130.51968 -2.1417236" fill-rule="evenodd"/><path stroke="#93c47d" stroke-width="16.0" stroke-linejoin="round" stroke-linecap="butt" d="m54.45013 257.84723l130.51968 -2.1417236" fill-rule="evenodd"/><path fill="#000000" fill-opacity="0.0" d="m112.44171 368.6268l105.95276 -1.1968689" fill-rule="evenodd"/><path stroke="#93c47d" stroke-width="16.0" stroke-linejoin="round" stroke-linecap="butt" d="m112.44171 368.6268l105.95276 -1.1968689" fill-rule="evenodd"/><path fill="#000000" fill-opacity="0.0" d="m170.56036 467.52887l75.30708 -0.09448242" fill-rule="evenodd"/><path stroke="#93c47d" stroke-width="16.0" stroke-linejoin="round" stroke-linecap="butt" d="m170.56036 467.52887l75.30708 -0.09448242" fill-rule="evenodd"/><path fill="#000000" fill-opacity="0.0" d="m158.84953 410.87512l87.02362 1.6062927" fill-rule="evenodd"/><path stroke="#93c47d" stroke-width="16.0" stroke-linejoin="round" stroke-linecap="butt" d="m158.84953 410.87512l87.02362 1.6062927" fill-rule="evenodd"/><path fill="#000000" fill-opacity="0.0" d="m100.87232 305.017l102.07874 -5.448822" fill-rule="evenodd"/><path stroke="#93c47d" stroke-width="16.0" stroke-linejoin="round" stroke-linecap="butt" d="m100.87232 305.017l102.07874 -5.448822" fill-rule="evenodd"/><path fill="#000000" fill-opacity="0.0" d="m446.67038 205.93047l50.67044 115.82799l-20.90097 13.659332l63.82309 99.25391l-20.901001 16.574066l78.90411 166.17886l-133.81253 -127.35361l25.519989 -17.679016l-83.14203 -81.57492l29.792572 -25.20401l-87.78415 -85.57556z" fill-rule="evenodd"/><path stroke="#93c47d" stroke-width="16.0" stroke-linejoin="round" stroke-linecap="butt" d="m446.67038 205.93047l50.67044 115.82799l-20.90097 13.659332l63.82309 99.25391l-20.901001 16.574066l78.90411 166.17886l-133.81253 -127.35361l25.519989 -17.679016l-83.14203 -81.57492l29.792572 -25.20401l-87.78415 -85.57556z" fill-rule="evenodd"/><path fill="#000000" fill-opacity="0.0" d="m348.8399 280.0375l130.51968 -2.1417236" fill-rule="evenodd"/><path stroke="#93c47d" stroke-width="16.0" stroke-linejoin="round" stroke-linecap="butt" d="m348.8399 280.0375l130.51968 -2.1417236" fill-rule="evenodd"/><path fill="#000000" fill-opacity="0.0" d="m406.83148 390.81708l105.95276 -1.1968384" fill-rule="evenodd"/><path stroke="#93c47d" stroke-width="16.0" stroke-linejoin="round" stroke-linecap="butt" d="m406.83148 390.81708l105.95276 -1.1968384" fill-rule="evenodd"/><path fill="#000000" fill-opacity="0.0" d="m464.95013 489.71915l75.30707 -0.09448242" fill-rule="evenodd"/><path stroke="#93c47d" stroke-width="16.0" stroke-linejoin="round" stroke-linecap="butt" d="m464.95013 489.71915l75.30707 -0.09448242" fill-rule="evenodd"/><path fill="#000000" fill-opacity="0.0" d="m453.2393 433.0654l87.02365 1.6062927" fill-rule="evenodd"/><path stroke="#93c47d" stroke-width="16.0" stroke-linejoin="round" stroke-linecap="butt" d="m453.2393 433.0654l87.02365 1.6062927" fill-rule="evenodd"/><path fill="#000000" fill-opacity="0.0" d="m395.2621 327.20728l102.078735 -5.448822" fill-rule="evenodd"/><path stroke="#93c47d" stroke-width="16.0" stroke-linejoin="round" stroke-linecap="butt" d="m395.2621 327.20728l102.078735 -5.448822" fill-rule="evenodd"/></g></svg>